<svg width="663" height="230" viewBox="0 0 663 230" fill="none" xmlns="http://www.w3.org/2000/svg">
<path d="M634.62 124.78C634.62 124.78 628.08 118.9 626.01 110.12C624.61 104.13 624.39 97.1 626.01 91.75C626.01 91.75 636.02 94.07 638.57 103.85C641.14 113.6 635.56 121.52 634.62 124.78Z" fill="#D2B32B"/>
<path d="M662.08 101.98C662.08 101.98 653.35 106.6 647.42 113.61C644.28 117.33 640.39 123.38 639.25 128.97C639.25 128.97 651.24 131.5 656.53 124.4C664.55 113.58 662.27 102.91 662.08 101.98Z" fill="#D2B32B"/>
<path d="M657.19 69.18C657.19 69.18 649.64 75.51 646.96 83.6C644.46 91.15 642.65 95 645.33 103.37C645.33 103.37 655.76 102.68 659.75 90.8C662.1 83.84 658.46 77.47 657.19 69.18Z" fill="#D2B32B"/>
<path d="M637.89 88.26C637.89 88.26 625.92 84.88 619.97 75.7C617.38 71.67 616.26 64.53 614.62 63.6C614.62 63.6 624.4 61.75 630.21 68.26C636.01 74.77 636.95 86.63 637.89 88.26Z" fill="#D2B32B"/>
<path d="M641.14 39.41C641.14 39.41 638.7 44.58 637.89 49.99C637.14 54.96 637.73 62.44 639.64 70.81C640.39 74.11 640.92 76.75 640.92 76.75C640.92 76.75 648.58 72.42 650.68 63.36C652.77 54.29 643.7 43.13 641.14 39.41Z" fill="#D2B32B"/>
<path d="M623.69 55.23C623.69 55.23 621.71 56.39 614.62 55.23C608.59 54.23 603.93 53.57 596.48 47.79C593.34 45.36 591.35 43.37 590.19 43.37C590.19 43.37 599.72 38.72 606.95 40.35C614.16 41.97 621.13 49.65 623.69 55.23Z" fill="#D2B32B"/>
<path d="M628.81 51.27C628.81 51.27 626.26 48.54 623.69 45.46C620.97 42.18 618.84 36.48 618.31 31.42C617.78 26.35 617.35 18.94 617.26 17.55C617.26 17.55 625.29 21.82 629.39 26.79C633.49 31.76 634.98 37.17 634.45 42.06C633.93 46.85 632.59 47.6 628.81 51.27Z" fill="#D2B32B"/>
<path d="M611.16 31.67C611.16 31.67 612.88 21.99 611.16 16.93C609.04 10.63 602.79 7.59 597.73 6.11C592.67 4.64 588.49 3.84 588.05 3.41C588.05 3.41 590.91 15.5 594.59 20.6C600.89 29.32 603.69 30.41 611.16 31.67Z" fill="#D2B32B"/>
<path d="M595.28 31.67C595.28 31.67 585.5 25.31 576.7 25.65C567.9 26.01 563 34.64 560.74 37.26C560.74 37.26 572.61 39.62 576.1 39.41C584.46 38.91 588.49 36.99 595.28 31.67Z" fill="#D2B32B"/>
<path d="M586.65 17.98C586.65 17.98 575.89 19.17 569.46 15.53C564.47 12.71 554.55 4.88999 553.23 0.619988C553.23 0.619988 569.53 -1.46001 576.17 2.19C585.08 7.07 585.69 11.35 586.65 17.98Z" fill="#D2B32B"/>
<path d="M559.43 16.93C559.43 16.93 543.55 19.55 536.75 16.93C529.94 14.31 527.15 11.7 524.28 8.86001C524.28 8.86001 534.43 1.59001 544.87 3.41001C556.65 5.48001 557.34 13 559.43 16.93Z" fill="#D2B32B"/>
<path d="M559.95 24.08C559.95 24.08 552.97 20.94 541.86 26.87C530.73 32.79 531.95 42.92 530.73 44.57C530.73 44.57 542.77 44.31 551.49 35.15C560.22 26 559.42 24.89 559.95 24.08Z" fill="#D2B32B"/>
<path d="M531.46 20.51C531.46 20.51 531.52 27.54 517.83 29.14C502.89 30.89 498.81 26.87 495.41 26.18C495.41 26.18 502.23 16.93 513.12 14.49C524.01 12.05 530.73 18.65 531.46 20.51Z" fill="#D2B32B"/>
<path d="M524.89 34.73C524.89 34.73 524.46 48.07 520.7 54.27C516.96 60.46 509.88 65.09 508.84 66.57C508.84 66.57 504.33 53.98 508.84 46.51C513.98 37.95 520.96 35.42 524.89 34.73Z" fill="#D2B32B"/>
<path d="M508.58 36.38C508.58 36.38 500.81 48.07 490.8 50.57C481.54 52.88 476.01 52.2 474.3 53.57C474.3 53.57 479.79 41.71 485.37 37.26C490.95 32.8 500.37 30.18 508.58 36.38Z" fill="#D2B32B"/>
<path d="M498.89 59.94C498.89 59.94 493.53 65.7 491.43 70.67C490.64 72.54 488.07 82.45 494.18 90.56C497.14 94.48 497.24 93.79 498.89 95.01C498.89 95.01 504.92 84.1 502.91 74.77C500.9 65.43 499.59 62.99 498.89 59.94Z" fill="#D2B32B"/>
<path d="M490.08 56.45C490.08 56.45 477.93 55.03 471.24 61.51C463.47 69.03 465.73 73.46 463.47 81.66C463.47 81.66 472.03 83.49 481.18 72.76C490.35 62.03 488.58 58.89 490.08 56.45Z" fill="#D2B32B"/>
<path d="M480.39 82.44C480.39 82.44 468.96 82.79 464.51 91.34C460.06 99.89 462.59 113.94 462.51 117.33C462.51 117.33 473.73 107.76 475.94 103.82C482.05 92.92 479.78 84.8 480.39 82.8" fill="#D2B32B"/>
<path d="M480.39 110.35C480.39 110.35 471.5 111.48 467.75 122.13C464 132.77 470.99 142.89 474.07 145.41C474.07 145.41 479.94 142.96 482.06 127.88C483.63 116.73 480.22 111.84 480.39 110.35Z" fill="#D2B32B"/>
<path d="M486.16 95C486.16 95 495.45 101.4 498.2 104.51C503.36 110.35 503.72 119.77 503.31 123.35C503.31 123.35 494.97 125.35 490.61 119.25C486.24 113.15 483.97 101.29 486.16 95Z" fill="#D2B32B"/>
<path d="M563.17 197.84C509.78 198.81 465.41 158.29 461.56 106.3C461.48 108.13 461.46 109.97 461.49 111.84C462.5 166.46 508.1 209.92 563.38 208.91C618.64 207.9 662.66 162.82 661.65 108.19C661.62 106.32 661.52 104.49 661.39 102.66C659.43 154.76 616.57 196.86 563.17 197.84Z" fill="#8DC63F"/>
<path d="M587.55 162.45C587.8 176.27 576.8 187.69 562.98 187.93C549.16 188.19 537.76 177.19 537.51 163.36C537.26 149.55 548.25 138.13 562.08 137.87C575.89 137.64 587.3 148.64 587.55 162.45Z" fill="#8DC63F"/>
<path d="M50.94 144.34C50.94 145.62 50.7 146.26 50.23 146.26H48.28C46.27 146.26 44.62 145.75 43.32 144.73C42.21 145.75 40.55 146.26 38.36 146.26C36.21 146.26 34.49 145.75 33.22 144.73C32.11 145.75 30.46 146.26 28.26 146.26C27.1 146.26 26.05 146.06 25.11 145.66C24.45 148.29 23.18 150.38 21.3 151.96C19.42 153.53 17.06 154.32 14.23 154.32C11.84 154.32 9.79 153.77 8.08 152.66C6.37 151.54 5.07 150.03 4.18 148.1C3.29 146.17 2.85 144.01 2.85 141.59C2.85 139.63 3.16 137.63 3.77 135.6L7.49 137.37C7.11 138.93 6.92 140.37 6.92 141.69C6.92 144.41 7.57 146.55 8.87 148.12C10.17 149.69 11.96 150.48 14.22 150.48C16.48 150.48 18.27 149.69 19.57 148.12C20.87 146.55 21.52 144.42 21.52 141.72C21.52 140.54 21.38 139.29 21.11 137.98C20.84 136.67 20.48 135.48 20.03 134.42L23.65 132.57C24.24 133.82 24.71 135.25 25.07 136.84C25.43 138.43 25.6 140.01 25.6 141.57V142.21C26.1 142.37 26.76 142.46 27.58 142.46C28.95 142.46 29.88 142.21 30.36 141.71C30.84 141.21 31.09 140.33 31.09 139.05V130.76H35.17V139.09C35.17 140.13 35.06 141.06 34.85 141.89C35.53 142.27 36.48 142.46 37.69 142.46C39.06 142.46 39.99 142.21 40.47 141.71C40.96 141.21 41.2 140.33 41.2 139.05V128.98H45.28V139.08C45.28 140.12 45.17 141.06 44.96 141.91C45.58 142.27 46.32 142.44 47.19 142.44H50.24C50.7 142.46 50.94 143.09 50.94 144.34Z" fill="#8DC63F"/>
<path d="M64.8 144.34C64.8 145.62 64.56 146.26 64.09 146.26H62.14C60.13 146.26 58.48 145.75 57.18 144.73C56.07 145.75 54.36 146.26 52.04 146.26H50.23C49.76 146.26 49.52 145.62 49.52 144.34C49.52 143.09 49.76 142.46 50.23 142.46H51.72C53 142.46 53.87 142.2 54.34 141.7C54.81 141.2 55.05 140.31 55.05 139.06V129.03H59.13V139.1C59.13 140.16 59.02 141.11 58.81 141.93C59.43 142.29 60.17 142.46 61.04 142.46H64.09C64.56 142.46 64.8 143.09 64.8 144.34ZM52.76 152.82C52.35 152.39 52.15 151.86 52.15 151.21C52.15 150.57 52.35 150.04 52.76 149.62C53.17 149.2 53.68 149 54.3 149C54.92 149 55.44 149.21 55.84 149.62C56.25 150.04 56.45 150.57 56.45 151.21C56.45 151.86 56.25 152.39 55.84 152.82C55.43 153.24 54.92 153.46 54.3 153.46C53.68 153.46 53.17 153.24 52.76 152.82ZM58.36 152.82C57.95 152.39 57.75 151.86 57.75 151.21C57.75 150.57 57.95 150.04 58.36 149.62C58.77 149.2 59.28 149 59.9 149C60.52 149 61.04 149.21 61.44 149.62C61.85 150.04 62.05 150.57 62.05 151.21C62.05 151.86 61.85 152.39 61.44 152.82C61.03 153.24 60.52 153.46 59.9 153.46C59.28 153.46 58.77 153.24 58.36 152.82Z" fill="#8DC63F"/>
<path d="M91.49 144.34C91.49 145.62 91.25 146.26 90.78 146.26H90.53C88.26 146.26 86.44 145.64 85.07 144.42C83.53 145.04 81.93 145.49 80.27 145.8C78.61 146.11 77.09 146.26 75.71 146.26C73.44 146.26 71.23 145.78 69.08 144.81C67.9 145.78 66.4 146.26 64.58 146.26H64.08C63.61 146.26 63.37 145.62 63.37 144.34C63.37 143.09 63.61 142.46 64.08 142.46H64.58C65.34 142.46 65.93 142.28 66.37 141.91C66.81 141.54 67.08 140.96 67.2 140.16L67.31 139.24C67.52 137.37 67.82 135.63 68.21 133.99C68.6 132.36 69.36 130.85 70.48 129.47C71.6 128.09 73.16 127.4 75.14 127.4C76.89 127.4 78.54 127.97 80.1 129.12C81.66 130.27 82.96 131.86 84 133.89C85.04 135.92 85.69 138.19 85.95 140.7C86.61 141.88 87.77 142.47 89.43 142.47H90.78C91.25 142.46 91.49 143.09 91.49 144.34ZM75.75 142.46C77.64 142.46 79.71 142.12 81.95 141.43C81.79 139.61 81.36 137.91 80.67 136.34C79.99 134.77 79.16 133.52 78.21 132.58C77.25 131.65 76.29 131.18 75.32 131.18C74.4 131.18 73.67 131.6 73.14 132.44C72.61 133.28 72.24 134.24 72.02 135.33C71.81 136.42 71.62 137.7 71.45 139.2L71.24 140.9L71.13 141.43C72.61 142.12 74.14 142.46 75.75 142.46Z" fill="#8DC63F"/>
<path d="M115.03 144.34C115.03 145.62 114.79 146.26 114.32 146.26H90.78C90.31 146.26 90.07 145.62 90.07 144.34C90.07 143.09 90.31 142.46 90.78 142.46H104.85V137.07C104.85 135.28 104.28 133.85 103.13 132.78C101.98 131.72 100.45 131.19 98.54 131.19C96.44 131.19 94.47 131.84 92.65 133.14L90.88 129.66C93.2 128.15 95.75 127.39 98.54 127.39C100.55 127.39 102.34 127.8 103.91 128.63C105.48 129.46 106.71 130.6 107.6 132.07C108.49 133.53 108.93 135.2 108.93 137.07V142.46H114.32C114.79 142.46 115.03 143.09 115.03 144.34ZM96.95 123.5C96.5 123.03 96.28 122.43 96.28 121.72C96.28 121.01 96.51 120.43 96.95 119.97C97.4 119.51 97.97 119.28 98.65 119.28C99.33 119.28 99.9 119.51 100.35 119.97C100.8 120.43 101.02 121.02 101.02 121.72C101.02 122.43 100.79 123.02 100.35 123.5C99.9 123.97 99.33 124.21 98.65 124.21C97.96 124.21 97.4 123.97 96.95 123.5Z" fill="#8DC63F"/>
<path d="M122.16 129.03V146.26H114.33C113.86 146.26 113.62 145.62 113.62 144.34C113.62 143.09 113.86 142.46 114.33 142.46H118.09V129.02H122.16V129.03ZM118.08 153.31C117.63 152.84 117.41 152.25 117.41 151.54C117.41 150.83 117.63 150.24 118.08 149.78C118.53 149.32 119.09 149.09 119.78 149.09C120.46 149.09 121.03 149.32 121.48 149.78C121.93 150.24 122.15 150.83 122.15 151.54C122.15 152.25 121.93 152.84 121.48 153.31C121.03 153.79 120.46 154.02 119.78 154.02C119.09 154.02 118.53 153.79 118.08 153.31Z" fill="#8DC63F"/>
<path d="M156.97 144.34C156.97 145.62 156.73 146.26 156.26 146.26H155.51C152.6 146.26 150.61 145.42 149.52 143.74C148.67 144.14 147.75 144.47 146.75 144.71C145.76 144.96 144.8 145.08 143.88 145.08C142.2 145.08 140.65 144.7 139.23 143.93C137.81 143.16 136.68 142.11 135.84 140.78C135 139.45 134.58 137.99 134.58 136.4C134.58 134.79 135 133.33 135.84 132C136.68 130.68 137.81 129.63 139.23 128.85C140.65 128.07 142.19 127.68 143.84 127.68H148.41V126.79H152.49V139.06C152.49 140.32 152.73 141.2 153.2 141.7C153.67 142.21 154.55 142.46 155.82 142.46H156.25C156.73 142.46 156.97 143.09 156.97 144.34ZM148.46 139.98C148.44 139.79 148.42 139.49 148.42 139.1V131.47H143.85C142.91 131.47 142.04 131.69 141.25 132.13C140.46 132.57 139.83 133.16 139.37 133.92C138.91 134.68 138.68 135.5 138.68 136.4C138.68 137.3 138.91 138.11 139.35 138.84C139.8 139.57 140.43 140.16 141.25 140.59C142.06 141.03 142.98 141.25 144 141.25C145.46 141.26 146.95 140.83 148.46 139.98ZM139.55 124.45C139.14 124.02 138.94 123.49 138.94 122.84C138.94 122.2 139.14 121.67 139.55 121.25C139.96 120.83 140.47 120.62 141.09 120.62C141.71 120.62 142.23 120.83 142.63 121.25C143.04 121.67 143.24 122.2 143.24 122.84C143.24 123.49 143.04 124.02 142.63 124.45C142.22 124.88 141.71 125.1 141.09 125.1C140.47 125.1 139.95 124.88 139.55 124.45ZM145.15 124.45C144.74 124.02 144.54 123.49 144.54 122.84C144.54 122.2 144.74 121.67 145.15 121.25C145.56 120.83 146.07 120.62 146.69 120.62C147.31 120.62 147.83 120.83 148.23 121.25C148.64 121.67 148.84 122.2 148.84 122.84C148.84 123.49 148.64 124.02 148.23 124.45C147.82 124.88 147.31 125.1 146.69 125.1C146.07 125.1 145.55 124.88 145.15 124.45Z" fill="#8DC63F"/>
<path d="M163.1 144.34C163.1 145.62 162.86 146.26 162.39 146.26H156.26C155.79 146.26 155.55 145.62 155.55 144.34C155.55 143.09 155.79 142.46 156.26 142.46H162.39C162.86 142.46 163.1 143.09 163.1 144.34Z" fill="#8DC63F"/>
<path d="M169.23 144.34C169.23 145.62 168.99 146.26 168.52 146.26H162.39C161.92 146.26 161.68 145.62 161.68 144.34C161.68 143.09 161.92 142.46 162.39 142.46H168.52C169 142.46 169.23 143.09 169.23 144.34Z" fill="#8DC63F"/>
<path d="M175.37 144.34C175.37 145.62 175.13 146.26 174.66 146.26H168.53C168.06 146.26 167.82 145.62 167.82 144.34C167.82 143.09 168.06 142.46 168.53 142.46H174.66C175.13 142.46 175.37 143.09 175.37 144.34Z" fill="#8DC63F"/>
<path d="M181.5 144.34C181.5 145.62 181.26 146.26 180.79 146.26H174.66C174.19 146.26 173.95 145.62 173.95 144.34C173.95 143.09 174.19 142.46 174.66 142.46H180.79C181.26 142.46 181.5 143.09 181.5 144.34Z" fill="#8DC63F"/>
<path d="M187.63 144.34C187.63 145.62 187.39 146.26 186.92 146.26H180.79C180.32 146.26 180.08 145.62 180.08 144.34C180.08 143.09 180.32 142.46 180.79 142.46H186.92C187.4 142.46 187.63 143.09 187.63 144.34Z" fill="#8DC63F"/>
<path d="M194.76 129.03V146.26H186.93C186.46 146.26 186.22 145.62 186.22 144.34C186.22 143.09 186.46 142.46 186.93 142.46H190.69V129.02H194.76V129.03ZM188.39 152.82C187.98 152.39 187.78 151.86 187.78 151.21C187.78 150.57 187.98 150.04 188.39 149.62C188.8 149.2 189.31 149 189.93 149C190.55 149 191.07 149.21 191.47 149.62C191.88 150.04 192.08 150.57 192.08 151.21C192.08 151.86 191.88 152.39 191.47 152.82C191.06 153.24 190.55 153.46 189.93 153.46C189.31 153.46 188.8 153.24 188.39 152.82ZM194 152.82C193.59 152.39 193.39 151.86 193.39 151.21C193.39 150.57 193.59 150.04 194 149.62C194.41 149.2 194.92 149 195.54 149C196.16 149 196.68 149.21 197.08 149.62C197.49 150.04 197.69 150.57 197.69 151.21C197.69 151.86 197.49 152.39 197.08 152.82C196.67 153.24 196.16 153.46 195.54 153.46C194.92 153.46 194.4 153.24 194 152.82Z" fill="#8DC63F"/>
<path d="M222.52 144.34C222.52 145.62 222.28 146.26 221.81 146.26H220C217.54 146.26 215.75 145.68 214.61 144.51C213.47 143.34 212.91 141.54 212.91 139.11V138.75C211.92 139.01 210.89 139.14 209.82 139.14C208.73 139.14 207.69 139.01 206.7 138.75V146.34C206.7 148.82 206.03 150.76 204.68 152.15C203.33 153.55 201.48 154.26 199.11 154.32L198.47 150.49C199.93 150.59 200.99 150.31 201.64 149.66C202.29 149.01 202.61 147.91 202.61 146.35V129.05H206.69V134.97C207.68 135.23 208.72 135.36 209.81 135.36C210.87 135.36 211.9 135.23 212.9 134.97V129.05H216.98V139.08C216.98 140.34 217.22 141.22 217.69 141.72C218.16 142.23 219.04 142.48 220.31 142.48H221.8C222.28 142.46 222.52 143.09 222.52 144.34ZM210.62 152.82C210.21 152.39 210.01 151.86 210.01 151.21C210.01 150.57 210.21 150.04 210.62 149.62C211.03 149.2 211.54 149 212.16 149C212.78 149 213.3 149.21 213.7 149.62C214.11 150.04 214.31 150.57 214.31 151.21C214.31 151.86 214.11 152.39 213.7 152.82C213.29 153.24 212.78 153.46 212.16 153.46C211.54 153.46 211.03 153.24 210.62 152.82ZM216.22 152.82C215.81 152.39 215.61 151.86 215.61 151.21C215.61 150.57 215.81 150.04 216.22 149.62C216.63 149.2 217.14 149 217.76 149C218.38 149 218.9 149.21 219.3 149.62C219.71 150.04 219.91 150.57 219.91 151.21C219.91 151.86 219.71 152.39 219.3 152.82C218.89 153.24 218.38 153.46 217.76 153.46C217.14 153.46 216.63 153.24 216.22 152.82Z" fill="#8DC63F"/>
<path d="M246.06 144.34C246.06 145.62 245.82 146.26 245.35 146.26H221.81C221.34 146.26 221.1 145.62 221.1 144.34C221.1 143.09 221.34 142.46 221.81 142.46H235.88V137.07C235.88 135.28 235.31 133.85 234.16 132.78C233.01 131.72 231.48 131.19 229.57 131.19C227.47 131.19 225.5 131.84 223.68 133.14L221.91 129.66C224.23 128.15 226.78 127.39 229.57 127.39C231.58 127.39 233.37 127.8 234.94 128.63C236.51 129.46 237.74 130.6 238.63 132.07C239.52 133.53 239.96 135.2 239.96 137.07V142.46H245.35C245.82 142.46 246.06 143.09 246.06 144.34ZM227.98 123.5C227.53 123.03 227.31 122.43 227.31 121.72C227.31 121.01 227.54 120.43 227.98 119.97C228.43 119.51 229 119.28 229.68 119.28C230.36 119.28 230.93 119.51 231.38 119.97C231.83 120.43 232.05 121.02 232.05 121.72C232.05 122.43 231.82 123.02 231.38 123.5C230.93 123.97 230.36 124.21 229.68 124.21C228.99 124.21 228.42 123.97 227.98 123.5Z" fill="#8DC63F"/>
<path d="M252.15 119.99V146.26H245.34C244.87 146.26 244.63 145.62 244.63 144.34C244.63 143.09 244.87 142.46 245.34 142.46H248.07V119.98H252.15V119.99Z" fill="#8DC63F"/>
<path d="M258.36 119.99H262.44V146.26H258.36V119.99Z" fill="#8DC63F"/>
<path d="M297.96 144.34C297.96 145.62 297.72 146.26 297.25 146.26H296.5C293.59 146.26 291.6 145.42 290.51 143.74C289.66 144.14 288.74 144.47 287.74 144.71C286.75 144.96 285.79 145.08 284.87 145.08C283.19 145.08 281.64 144.7 280.22 143.93C278.8 143.16 277.67 142.11 276.83 140.78C275.99 139.45 275.57 137.99 275.57 136.4C275.57 134.79 275.99 133.33 276.83 132C277.67 130.68 278.8 129.63 280.22 128.85C281.64 128.07 283.18 127.68 284.83 127.68H289.4V126.79H293.48V139.06C293.48 140.32 293.72 141.2 294.19 141.7C294.66 142.2 295.54 142.46 296.81 142.46H297.24C297.72 142.46 297.96 143.09 297.96 144.34ZM289.45 139.98C289.43 139.79 289.41 139.49 289.41 139.1V131.47H284.84C283.9 131.47 283.03 131.69 282.24 132.13C281.45 132.57 280.82 133.16 280.36 133.92C279.9 134.68 279.67 135.5 279.67 136.4C279.67 137.3 279.9 138.11 280.34 138.84C280.79 139.57 281.42 140.16 282.24 140.59C283.05 141.03 283.97 141.25 284.99 141.25C286.44 141.26 287.93 140.83 289.45 139.98ZM280.53 124.45C280.12 124.02 279.92 123.49 279.92 122.84C279.92 122.2 280.12 121.67 280.53 121.25C280.94 120.83 281.45 120.62 282.07 120.62C282.69 120.62 283.21 120.83 283.61 121.25C284.02 121.67 284.22 122.2 284.22 122.84C284.22 123.49 284.02 124.02 283.61 124.45C283.2 124.88 282.69 125.1 282.07 125.1C281.45 125.1 280.94 124.88 280.53 124.45ZM286.13 124.45C285.72 124.02 285.52 123.49 285.52 122.84C285.52 122.2 285.72 121.67 286.13 121.25C286.54 120.83 287.05 120.62 287.67 120.62C288.29 120.62 288.81 120.83 289.21 121.25C289.62 121.67 289.82 122.2 289.82 122.84C289.82 123.49 289.62 124.02 289.21 124.45C288.8 124.88 288.29 125.1 287.67 125.1C287.05 125.1 286.54 124.88 286.13 124.45Z" fill="#8DC63F"/>
<path d="M304.09 144.34C304.09 145.62 303.85 146.26 303.38 146.26H297.25C296.78 146.26 296.54 145.62 296.54 144.34C296.54 143.09 296.78 142.46 297.25 142.46H303.38C303.85 142.46 304.09 143.09 304.09 144.34Z" fill="#8DC63F"/>
<path d="M304.09 144.34C304.09 145.62 303.85 146.26 303.38 146.26H297.25C296.78 146.26 296.54 145.62 296.54 144.34C296.54 143.09 296.78 142.46 297.25 142.46H303.38C303.85 142.46 304.09 143.09 304.09 144.34Z" fill="#8DC63F"/>
<path d="M310.22 144.34C310.22 145.62 309.99 146.26 309.51 146.26H303.37C302.9 146.26 302.66 145.62 302.66 144.34C302.66 143.09 302.89 142.46 303.37 142.46H309.51C309.98 142.46 310.22 143.09 310.22 144.34Z" fill="#8DC63F"/>
<path d="M316.35 144.34C316.35 145.62 316.11 146.26 315.64 146.26H309.51C309.04 146.26 308.8 145.62 308.8 144.34C308.8 143.09 309.04 142.46 309.51 142.46H315.64C316.12 142.46 316.35 143.09 316.35 144.34Z" fill="#8DC63F"/>
<path d="M330.22 144.34C330.22 145.62 329.98 146.26 329.51 146.26H327.56C325.55 146.26 323.9 145.75 322.6 144.73C321.49 145.75 319.77 146.26 317.46 146.26H315.65C315.18 146.26 314.94 145.62 314.94 144.34C314.94 143.09 315.17 142.46 315.65 142.46H317.14C318.41 142.46 319.29 142.2 319.76 141.7C320.23 141.2 320.47 140.31 320.47 139.06V129.03H324.55V139.1C324.55 140.16 324.44 141.11 324.23 141.93C324.85 142.29 325.59 142.46 326.47 142.46H329.52C329.98 142.46 330.22 143.09 330.22 144.34ZM318.18 152.82C317.77 152.39 317.57 151.86 317.57 151.21C317.57 150.57 317.77 150.04 318.18 149.62C318.59 149.2 319.1 149 319.73 149C320.35 149 320.87 149.21 321.27 149.62C321.68 150.04 321.88 150.57 321.88 151.21C321.88 151.86 321.68 152.39 321.27 152.82C320.86 153.24 320.35 153.46 319.73 153.46C319.1 153.46 318.59 153.24 318.18 152.82ZM323.78 152.82C323.37 152.39 323.17 151.86 323.17 151.21C323.17 150.57 323.37 150.04 323.78 149.62C324.19 149.2 324.7 149 325.32 149C325.94 149 326.46 149.21 326.86 149.62C327.27 150.04 327.47 150.57 327.47 151.21C327.47 151.86 327.27 152.39 326.86 152.82C326.45 153.24 325.94 153.46 325.32 153.46C324.7 153.46 324.19 153.24 323.78 152.82Z" fill="#8DC63F"/>
<path d="M354.68 144.34C354.68 145.62 354.45 146.26 353.97 146.26H347.77C345.14 146.26 342.72 145.8 340.5 144.88C338.02 145.8 335.85 146.26 334.01 146.26H329.51C329.04 146.26 328.8 145.62 328.8 144.34C328.8 143.09 329.03 142.46 329.51 142.46H334.01C334.79 142.46 335.55 142.38 336.28 142.21C334.06 140.27 332.51 137.76 331.63 134.69L335.07 128.77C337.12 128.18 339.16 127.88 341.17 127.88C343.2 127.88 344.99 128.14 346.54 128.68C348.09 129.21 349.29 129.97 350.15 130.95C351.01 131.93 351.45 133.06 351.45 134.33C351.45 135.77 350.92 137.18 349.86 138.55C348.79 139.92 347.38 141.17 345.6 142.31C346.19 142.41 346.91 142.45 347.76 142.45H353.96C354.44 142.46 354.68 143.09 354.68 144.34ZM337.38 137.43C338.3 138.78 339.46 139.87 340.85 140.69C342.7 139.81 344.24 138.79 345.49 137.62C346.74 136.45 347.37 135.39 347.37 134.45C347.37 133.62 346.82 132.96 345.74 132.44C344.66 131.93 343.14 131.68 341.2 131.68C339.19 131.68 337.27 132.04 335.42 132.78C335.8 134.54 336.45 136.08 337.38 137.43Z" fill="#8DC63F"/>
<path d="M381.37 144.34C381.37 145.62 381.13 146.26 380.66 146.26H380.41C378.14 146.26 376.32 145.64 374.95 144.42C373.41 145.04 371.81 145.49 370.14 145.8C368.48 146.11 366.96 146.26 365.59 146.26C363.32 146.26 361.11 145.78 358.96 144.81C357.78 145.78 356.28 146.26 354.46 146.26H353.96C353.49 146.26 353.25 145.62 353.25 144.34C353.25 143.09 353.48 142.46 353.96 142.46H354.46C355.21 142.46 355.81 142.28 356.25 141.91C356.69 141.54 356.96 140.96 357.08 140.16L357.19 139.24C357.4 137.37 357.7 135.63 358.09 133.99C358.48 132.36 359.24 130.85 360.36 129.47C361.48 128.09 363.04 127.4 365.02 127.4C366.77 127.4 368.42 127.97 369.98 129.12C371.54 130.27 372.84 131.86 373.88 133.89C374.92 135.92 375.57 138.19 375.83 140.7C376.49 141.88 377.65 142.47 379.31 142.47H380.66C381.13 142.46 381.37 143.09 381.37 144.34ZM365.63 142.46C367.52 142.46 369.59 142.12 371.83 141.43C371.67 139.61 371.24 137.91 370.55 136.34C369.87 134.77 369.05 133.52 368.09 132.58C367.13 131.65 366.17 131.18 365.2 131.18C364.28 131.18 363.55 131.6 363.02 132.44C362.49 133.28 362.11 134.24 361.9 135.33C361.69 136.42 361.5 137.7 361.33 139.2L361.12 140.9L361.01 141.43C362.49 142.12 364.02 142.46 365.63 142.46Z" fill="#8DC63F"/>
<path d="M404.91 144.34C404.91 145.62 404.67 146.26 404.2 146.26H380.66C380.19 146.26 379.95 145.62 379.95 144.34C379.95 143.09 380.18 142.46 380.66 142.46H394.73V137.07C394.73 135.28 394.16 133.85 393.01 132.78C391.86 131.72 390.33 131.19 388.42 131.19C386.32 131.19 384.36 131.84 382.54 133.14L380.77 129.66C383.08 128.15 385.64 127.39 388.43 127.39C390.44 127.39 392.23 127.8 393.8 128.63C395.37 129.46 396.6 130.6 397.48 132.07C398.37 133.53 398.81 135.2 398.81 137.07V142.46H404.2C404.67 142.46 404.91 143.09 404.91 144.34ZM386.48 153.31C386.03 152.84 385.81 152.25 385.81 151.54C385.81 150.83 386.03 150.24 386.48 149.78C386.93 149.32 387.5 149.09 388.18 149.09C388.86 149.09 389.43 149.32 389.88 149.78C390.33 150.24 390.55 150.83 390.55 151.54C390.55 152.25 390.32 152.84 389.88 153.31C389.43 153.79 388.86 154.02 388.18 154.02C387.49 154.02 386.93 153.79 386.48 153.31Z" fill="#8DC63F"/>
<path d="M411.01 119.99V146.26H404.2C403.73 146.26 403.49 145.62 403.49 144.34C403.49 143.09 403.73 142.46 404.2 142.46H406.93V119.98H411.01V119.99Z" fill="#8DC63F"/>
<path d="M417.21 119.99H421.29V146.26H417.21V119.99Z" fill="#8DC63F"/>
<path d="M18.67 186.89C18.67 188.17 18.43 188.81 17.96 188.81H9.66V162.54H13.74V185.02H17.96C18.44 185.01 18.67 185.63 18.67 186.89Z" fill="#8DC63F"/>
<path d="M42.32 186.89C42.32 188.17 42.08 188.81 41.61 188.81H41.04C40.02 188.81 39.29 189.07 38.82 189.59C38.36 190.11 38.07 190.8 37.97 191.67C37.86 192.53 37.81 193.82 37.81 195.55V197.28L34.09 199.55C32.55 199.55 31.03 199.12 29.52 198.25C28.01 197.39 26.65 196.15 25.44 194.53C24.23 192.91 23.32 191 22.71 188.81H17.96C17.49 188.81 17.25 188.17 17.25 186.89C17.25 185.64 17.49 185.01 17.96 185.01H21.97C21.9 184.23 21.86 183.41 21.86 182.56C21.86 179.96 22.22 177.73 22.94 175.86C23.66 173.99 24.6 172.58 25.76 171.62C26.92 170.66 28.15 170.19 29.45 170.19C30.73 170.19 31.95 170.67 33.12 171.62C34.29 172.58 35.24 173.99 35.96 175.88C36.68 177.76 37.04 179.99 37.04 182.56C37.04 183.58 36.96 184.75 36.79 186.07C37.88 185.36 39.29 185.01 41.05 185.01H41.62C42.08 185.01 42.32 185.63 42.32 186.89ZM26.08 185.01H32.82C32.92 184.35 32.96 183.58 32.96 182.7C32.96 181.09 32.78 179.62 32.43 178.28C32.08 176.95 31.62 175.89 31.07 175.13C30.52 174.36 29.98 173.98 29.46 173.98C28.92 173.98 28.37 174.37 27.83 175.13C27.29 175.9 26.84 176.95 26.48 178.27C26.13 179.6 25.95 181.03 25.95 182.59C25.94 183.17 25.99 183.97 26.08 185.01ZM29.57 193.32C30.64 194.54 31.8 195.3 33.03 195.61L33.74 195.19C33.74 193.82 33.79 192.63 33.88 191.62C33.98 190.62 34.2 189.68 34.55 188.8H27C27.64 190.6 28.5 192.1 29.57 193.32Z" fill="#8DC63F"/>
<path d="M48.42 162.53V188.8H41.61C41.14 188.8 40.9 188.16 40.9 186.88C40.9 185.63 41.14 185 41.61 185H44.34V162.52H48.42V162.53Z" fill="#8DC63F"/>
<path d="M84.05 186.89C84.05 188.17 83.81 188.81 83.34 188.81H82.59C79.68 188.81 77.69 187.97 76.6 186.29C75.75 186.69 74.83 187.02 73.83 187.26C72.83 187.5 71.88 187.63 70.96 187.63C69.28 187.63 67.73 187.24 66.31 186.48C64.89 185.71 63.76 184.66 62.92 183.33C62.08 182 61.66 180.54 61.66 178.95C61.66 177.35 62.08 175.88 62.92 174.56C63.76 173.24 64.89 172.19 66.31 171.41C67.73 170.63 69.27 170.24 70.92 170.24H75.49V169.35H79.57V181.62C79.57 182.87 79.81 183.75 80.28 184.26C80.75 184.77 81.63 185.02 82.9 185.02H83.33C83.81 185.01 84.05 185.63 84.05 186.89ZM75.54 182.53C75.52 182.34 75.5 182.04 75.5 181.64V174.02H70.93C69.99 174.02 69.12 174.24 68.33 174.68C67.54 175.12 66.91 175.71 66.45 176.47C65.99 177.22 65.76 178.05 65.76 178.95C65.76 179.85 65.99 180.67 66.43 181.4C66.88 182.13 67.51 182.72 68.33 183.15C69.14 183.59 70.06 183.8 71.08 183.8C72.54 183.8 74.02 183.38 75.54 182.53Z" fill="#8DC63F"/>
<path d="M90.18 186.89C90.18 188.17 89.94 188.81 89.47 188.81H83.34C82.87 188.81 82.63 188.17 82.63 186.89C82.63 185.64 82.87 185.01 83.34 185.01H89.47C89.94 185.01 90.18 185.63 90.18 186.89Z" fill="#8DC63F"/>
<path d="M114.64 186.89C114.64 188.17 114.4 188.81 113.93 188.81H107.73C105.11 188.81 102.68 188.35 100.46 187.43C97.98 188.35 95.81 188.81 93.97 188.81H89.47C89 188.81 88.76 188.17 88.76 186.89C88.76 185.64 89 185.01 89.47 185.01H93.97C94.75 185.01 95.51 184.93 96.24 184.76C94.02 182.82 92.47 180.32 91.6 177.25L95.04 171.33C97.1 170.74 99.13 170.45 101.14 170.45C103.17 170.45 104.96 170.71 106.51 171.25C108.06 171.78 109.26 172.54 110.13 173.52C110.99 174.5 111.42 175.63 111.42 176.9C111.42 178.34 110.89 179.75 109.83 181.12C108.77 182.49 107.35 183.74 105.57 184.88C106.16 184.98 106.88 185.02 107.73 185.02H113.93C114.4 185.01 114.64 185.63 114.64 186.89ZM97.34 179.98C98.26 181.33 99.42 182.42 100.81 183.24C102.65 182.37 104.2 181.35 105.46 180.18C106.72 179.01 107.34 177.95 107.34 177C107.34 176.18 106.8 175.51 105.71 175C104.62 174.49 103.11 174.24 101.17 174.24C99.16 174.24 97.24 174.61 95.39 175.34C95.77 177.08 96.42 178.63 97.34 179.98Z" fill="#8DC63F"/>
<path d="M121.76 171.57V188.8H113.93C113.46 188.8 113.22 188.16 113.22 186.88C113.22 185.63 113.46 185 113.93 185H117.69V171.56H121.76V171.57ZM117.69 195.86C117.24 195.39 117.02 194.8 117.02 194.09C117.02 193.38 117.24 192.79 117.69 192.34C118.14 191.88 118.7 191.65 119.39 191.65C120.07 191.65 120.64 191.88 121.09 192.34C121.54 192.8 121.76 193.38 121.76 194.09C121.76 194.8 121.54 195.39 121.09 195.86C120.64 196.33 120.07 196.57 119.39 196.57C118.7 196.57 118.14 196.33 117.69 195.86Z" fill="#8DC63F"/>
<path d="M136.62 186.89C136.62 188.17 136.38 188.81 135.91 188.81H127.61V162.54H131.69V185.02H135.91C136.38 185.01 136.62 185.63 136.62 186.89Z" fill="#8DC63F"/>
<path d="M150.48 186.89C150.48 188.17 150.24 188.81 149.77 188.81H147.82C145.81 188.81 144.16 188.3 142.86 187.28C141.75 188.3 140.04 188.81 137.72 188.81H135.91C135.44 188.81 135.2 188.17 135.2 186.89C135.2 185.64 135.44 185.01 135.91 185.01H137.4C138.68 185.01 139.55 184.75 140.02 184.25C140.49 183.74 140.73 182.86 140.73 181.61V171.58H144.81V181.65C144.81 182.72 144.7 183.66 144.49 184.49C145.11 184.85 145.85 185.02 146.72 185.02H149.77C150.24 185.01 150.48 185.63 150.48 186.89ZM138.44 168.45C138.03 168.02 137.83 167.49 137.83 166.84C137.83 166.2 138.03 165.67 138.44 165.25C138.85 164.83 139.36 164.62 139.98 164.62C140.6 164.62 141.12 164.83 141.52 165.25C141.93 165.67 142.13 166.2 142.13 166.84C142.13 167.49 141.93 168.02 141.52 168.45C141.11 168.88 140.6 169.1 139.98 169.1C139.37 169.1 138.85 168.88 138.44 168.45ZM144.05 168.45C143.64 168.02 143.44 167.49 143.44 166.84C143.44 166.2 143.64 165.67 144.05 165.25C144.46 164.83 144.97 164.62 145.59 164.62C146.21 164.62 146.73 164.83 147.13 165.25C147.54 165.67 147.74 166.2 147.74 166.84C147.74 167.49 147.54 168.02 147.13 168.45C146.72 168.88 146.21 169.1 145.59 169.1C144.97 169.1 144.45 168.88 144.05 168.45Z" fill="#8DC63F"/>
<path d="M156.58 162.53V188.8H149.77C149.3 188.8 149.06 188.16 149.06 186.88C149.06 185.63 149.3 185 149.77 185H152.5V162.52H156.58V162.53Z" fill="#8DC63F"/>
<path d="M162.78 162.53H166.86V188.8H162.78V162.53Z" fill="#8DC63F"/>
<path d="M184.33 194.78C181.75 193.32 180.47 190.87 180.47 187.42C180.47 186.64 180.53 185.71 180.65 184.64C180.77 183.57 180.95 182.55 181.18 181.61L185.15 182.53C184.98 183.19 184.84 183.99 184.72 184.92C184.6 185.86 184.54 186.66 184.54 187.35C184.54 188.79 184.88 189.93 185.57 190.77C186.25 191.61 187.38 192.22 188.96 192.59C190.53 192.97 192.69 193.16 195.43 193.16C199.12 193.16 201.82 192.85 203.53 192.22C205.24 191.59 206.1 190.68 206.1 189.47C206.1 188.81 205.86 188.26 205.37 187.81C204.88 187.36 204.28 187 203.56 186.73C202.84 186.46 201.83 186.14 200.53 185.76C198.76 185.24 197.31 184.74 196.19 184.26C195.07 183.77 194.11 183.06 193.32 182.13C192.53 181.19 192.13 179.97 192.13 178.46C192.13 177.02 192.51 175.76 193.27 174.7C194.03 173.63 195.08 172.82 196.42 172.25C197.77 171.68 199.33 171.4 201.1 171.4C202.73 171.4 204.3 171.63 205.81 172.09C207.32 172.55 208.67 173.19 209.85 173.99L208.18 177.53C206.9 176.73 205.62 176.13 204.33 175.74C203.04 175.35 201.87 175.16 200.8 175.16C199.48 175.16 198.38 175.42 197.5 175.92C196.63 176.43 196.19 177.18 196.19 178.17C196.19 178.86 196.44 179.43 196.94 179.89C197.44 180.35 198.04 180.73 198.76 181.03C199.48 181.32 200.51 181.68 201.86 182.07C203.61 182.62 205.04 183.13 206.15 183.61C207.26 184.1 208.21 184.8 208.99 185.72C209.77 186.64 210.16 187.83 210.16 189.26C210.16 191.74 208.96 193.65 206.54 194.97C204.13 196.29 200.42 196.95 195.41 196.95C190.61 196.96 186.91 196.23 184.33 194.78Z" fill="#8DC63F"/>
<path d="M224.61 186.89C224.61 188.17 224.37 188.81 223.9 188.81H220V188.88C220 191.36 219.33 193.3 217.98 194.69C216.63 196.09 214.78 196.8 212.41 196.85L211.77 193.02C213.23 193.11 214.29 192.83 214.94 192.18C215.59 191.53 215.91 190.43 215.91 188.87V171.57H220V185.01H223.9C224.37 185.01 224.61 185.63 224.61 186.89Z" fill="#8DC63F"/>
<path d="M230.74 186.89C230.74 188.17 230.5 188.81 230.03 188.81H223.9C223.43 188.81 223.19 188.17 223.19 186.89C223.19 185.64 223.43 185.01 223.9 185.01H230.03C230.51 185.01 230.74 185.63 230.74 186.89Z" fill="#8DC63F"/>
<path d="M236.87 186.89C236.87 188.17 236.63 188.81 236.16 188.81H230.03C229.56 188.81 229.32 188.17 229.32 186.89C229.32 185.64 229.56 185.01 230.03 185.01H236.16C236.64 185.01 236.87 185.63 236.87 186.89Z" fill="#8DC63F"/>
<path d="M243.01 186.89C243.01 188.17 242.77 188.81 242.3 188.81H236.17C235.7 188.81 235.46 188.17 235.46 186.89C235.46 185.64 235.7 185.01 236.17 185.01H242.3C242.77 185.01 243.01 185.63 243.01 186.89Z" fill="#8DC63F"/>
<path d="M249.14 186.89C249.14 188.17 248.9 188.81 248.43 188.81H242.3C241.83 188.81 241.59 188.17 241.59 186.89C241.59 185.64 241.83 185.01 242.3 185.01H248.43C248.9 185.01 249.14 185.63 249.14 186.89Z" fill="#8DC63F"/>
<path d="M255.27 186.89C255.27 188.17 255.03 188.81 254.56 188.81H248.43C247.96 188.81 247.72 188.17 247.72 186.89C247.72 185.64 247.96 185.01 248.43 185.01H254.56C255.04 185.01 255.27 185.63 255.27 186.89Z" fill="#8DC63F"/>
<path d="M279.2 186.89C279.2 188.17 278.96 188.81 278.49 188.81H254.56C254.09 188.81 253.85 188.17 253.85 186.89C253.85 185.64 254.09 185.01 254.56 185.01H258.85C257.79 183.5 257.26 181.79 257.26 179.9C257.26 178.13 257.7 176.53 258.57 175.1C259.45 173.67 260.64 172.55 262.15 171.73C263.66 170.92 265.32 170.51 267.11 170.51C269.38 170.51 271.81 171.16 274.41 172.46V185.01H278.49C278.96 185.01 279.2 185.63 279.2 186.89ZM262.45 183.18C263.2 184.09 264.2 184.7 265.48 185.01H270.34V174.87C269.13 174.49 268.07 174.3 267.15 174.3C266.04 174.3 265.04 174.54 264.15 175.02C263.26 175.51 262.57 176.17 262.08 177.03C261.58 177.88 261.33 178.82 261.33 179.86C261.33 181.17 261.71 182.27 262.45 183.18ZM262.81 166.82C262.4 166.39 262.2 165.85 262.2 165.21C262.2 164.57 262.4 164.04 262.81 163.62C263.22 163.2 263.73 162.99 264.35 162.99C264.97 162.99 265.49 163.2 265.89 163.62C266.3 164.04 266.5 164.57 266.5 165.21C266.5 165.85 266.3 166.39 265.89 166.82C265.48 167.25 264.97 167.46 264.35 167.46C263.73 167.46 263.21 167.25 262.81 166.82ZM268.41 166.82C268 166.39 267.8 165.85 267.8 165.21C267.8 164.57 268 164.04 268.41 163.62C268.82 163.2 269.33 162.99 269.95 162.99C270.57 162.99 271.09 163.2 271.49 163.62C271.9 164.04 272.1 164.57 272.1 165.21C272.1 165.85 271.9 166.39 271.49 166.82C271.08 167.25 270.57 167.46 269.95 167.46C269.33 167.46 268.81 167.25 268.41 166.82Z" fill="#8DC63F"/>
<path d="M285.3 162.53V188.8H278.49C278.02 188.8 277.78 188.16 277.78 186.88C277.78 185.63 278.02 185 278.49 185H281.22V162.52H285.3V162.53Z" fill="#8DC63F"/>
<path d="M291.5 162.53H295.58V188.8H291.5V162.53Z" fill="#8DC63F"/>
<path d="M318.2 173.03V188.88C318.2 191.36 317.53 193.3 316.18 194.69C314.83 196.09 312.98 196.8 310.62 196.85L309.98 193.02C311.44 193.11 312.5 192.83 313.16 192.18C313.81 191.53 314.13 190.43 314.13 188.87V188.2C312.8 188.6 311.49 188.8 310.19 188.8C308.42 188.8 306.78 188.39 305.28 187.58C303.78 186.77 302.58 185.66 301.7 184.27C300.81 182.87 300.37 181.34 300.37 179.66C300.37 177.98 300.81 176.44 301.7 175.05C302.58 173.66 303.78 172.55 305.28 171.74C306.78 170.93 308.42 170.52 310.19 170.52C311.42 170.52 312.74 170.74 314.15 171.18C315.55 171.62 316.84 172.21 317.99 172.97L318.2 173.03ZM314.12 184.12V175.22C312.77 174.61 311.49 174.3 310.29 174.3C309.18 174.3 308.18 174.54 307.27 175.02C306.37 175.51 305.68 176.16 305.18 176.97C304.68 177.79 304.43 178.68 304.43 179.65C304.43 180.62 304.68 181.51 305.18 182.33C305.67 183.14 306.37 183.79 307.27 184.28C308.17 184.77 309.17 185.01 310.29 185.01C311.5 185.01 312.77 184.71 314.12 184.12Z" fill="#8DC63F"/>
<path d="M358.68 171.57V188.8L338.9 188.83C336.44 188.83 334.53 188.13 333.15 186.74C331.78 185.35 331.1 183.43 331.1 181C331.1 179.42 331.41 178.01 332.02 176.8C332.63 175.59 333.52 174.48 334.68 173.49L337.91 175.76C336.97 176.59 336.27 177.42 335.83 178.26C335.39 179.1 335.18 180 335.18 180.97C335.18 182.2 335.54 183.18 336.24 183.91C336.95 184.64 337.94 185.01 339.22 185.01H354.61V171.57H358.68ZM343.37 195.86C342.92 195.39 342.69 194.8 342.69 194.09C342.69 193.38 342.92 192.79 343.37 192.34C343.82 191.88 344.38 191.65 345.07 191.65C345.76 191.65 346.32 191.88 346.77 192.34C347.22 192.8 347.45 193.38 347.45 194.09C347.45 194.8 347.22 195.39 346.77 195.86C346.32 196.33 345.76 196.57 345.07 196.57C344.38 196.57 343.82 196.33 343.37 195.86Z" fill="#8DC63F"/>
<path d="M373.11 186.89C373.11 188.17 372.87 188.81 372.4 188.81H368.5V188.88C368.5 191.36 367.83 193.3 366.48 194.69C365.13 196.09 363.28 196.8 360.91 196.85L360.27 193.02C361.73 193.11 362.79 192.83 363.44 192.18C364.09 191.53 364.41 190.43 364.41 188.87V171.57H368.49V185.01H372.39C372.87 185.01 373.11 185.63 373.11 186.89Z" fill="#8DC63F"/>
<path d="M379.24 186.89C379.24 188.17 379.01 188.81 378.53 188.81H372.39C371.92 188.81 371.68 188.17 371.68 186.89C371.68 185.64 371.91 185.01 372.39 185.01H378.53C379.01 185.01 379.24 185.63 379.24 186.89Z" fill="#8DC63F"/>
<path d="M379.24 186.89C379.24 188.17 379.01 188.81 378.53 188.81H372.39C371.92 188.81 371.68 188.17 371.68 186.89C371.68 185.64 371.91 185.01 372.39 185.01H378.53C379.01 185.01 379.24 185.63 379.24 186.89Z" fill="#8DC63F"/>
<path d="M385.38 186.89C385.38 188.17 385.14 188.81 384.67 188.81H378.54C378.07 188.81 377.83 188.17 377.83 186.89C377.83 185.64 378.07 185.01 378.54 185.01H384.67C385.14 185.01 385.38 185.63 385.38 186.89Z" fill="#8DC63F"/>
<path d="M391.51 186.89C391.51 188.17 391.27 188.81 390.8 188.81H384.67C384.2 188.81 383.96 188.17 383.96 186.89C383.96 185.64 384.2 185.01 384.67 185.01H390.8C391.27 185.01 391.51 185.63 391.51 186.89Z" fill="#8DC63F"/>
<path d="M397.64 186.89C397.64 188.17 397.41 188.81 396.93 188.81H390.79C390.32 188.81 390.08 188.17 390.08 186.89C390.08 185.64 390.31 185.01 390.79 185.01H396.93C397.41 185.01 397.64 185.63 397.64 186.89Z" fill="#8DC63F"/>
<path d="M403.78 186.89C403.78 188.17 403.54 188.81 403.07 188.81H396.94C396.47 188.81 396.23 188.17 396.23 186.89C396.23 185.64 396.47 185.01 396.94 185.01H403.07C403.54 185.01 403.78 185.63 403.78 186.89Z" fill="#8DC63F"/>
<path d="M422.7 185.01L422.14 188.8H403.07C402.6 188.8 402.36 188.16 402.36 186.88C402.36 185.63 402.6 185 403.07 185H417.14V179.61C417.14 177.81 416.57 176.38 415.42 175.32C414.27 174.25 412.74 173.73 410.83 173.73C408.72 173.73 406.76 174.38 404.94 175.68L403.17 172.2C405.49 170.69 408.04 169.93 410.83 169.93C412.84 169.93 414.63 170.35 416.2 171.17C417.77 172 419 173.14 419.89 174.61C420.78 176.08 421.22 177.74 421.22 179.61V185H422.7V185.01Z" fill="#8DC63F"/>
<path d="M26.16 79.89H34.96C39.81 79.89 43.57 78.36 46.27 75.28C48.94 72.22 50.28 67.94 50.28 62.44C50.28 57.52 49.05 53.61 46.59 50.69C44.13 47.78 40.9 46.33 36.9 46.33C32.87 46.33 29.5 48 26.81 51.35C24.11 54.7 22.76 59.31 22.76 65.19C22.76 71.81 23.89 76.71 26.16 79.89ZM4.93 93.35C4.93 89.08 6.07 85.76 8.34 83.41C10.61 81.07 13.41 79.89 16.75 79.89H17.37C15.22 76.26 14.15 71.35 14.15 65.18C14.15 57.43 16.24 51.08 20.42 46.13C24.59 41.19 30.08 38.71 36.9 38.71C43.46 38.71 48.78 40.81 52.86 45.02C56.94 49.24 58.98 55.07 58.98 62.53C58.98 65.9 58.25 69.23 56.78 72.51C55.32 75.79 53.44 78.25 51.13 79.88H130.27V87.59H19.97C15.37 87.59 13.07 90.01 13.07 94.83V100.04C13.07 107.76 11.68 113.16 8.91 116.25H0.110001C3.33 113.36 4.93 107.39 4.93 98.35V93.35Z" fill="#D2B32B"/>
<path d="M173.93 70.43C173.93 73.32 174.8 75.63 176.59 77.33C178.34 79.03 180.67 79.88 183.54 79.88H185.1V87.6H184.81C179.37 87.6 175.73 85.72 173.93 81.95V87.6H128.35V79.88H165.71V61.7C165.71 52.15 159.77 47.38 147.88 47.38H135.3V39.33C138.36 32.68 143.03 26.38 149.33 20.46C155.61 14.52 162.3 10.11 169.4 7.22L172.47 14.75C166.26 17.32 160.44 20.94 155 25.6C149.56 30.26 145.68 34.96 143.34 39.73H147.88C156.13 39.73 162.55 41.48 167.09 44.98C171.65 48.49 173.93 53.59 173.93 60.27V70.43Z" fill="#D2B32B"/>
<path d="M200.64 19.56C203.99 19.56 205.65 21.41 205.65 25.11C205.65 28.78 203.99 30.61 200.64 30.61C197.3 30.61 195.63 28.78 195.63 25.11C195.63 21.41 197.3 19.56 200.64 19.56ZM183.14 79.89H196.38V39.72H204.99V87.61H183.14V79.89Z" fill="#D2B32B"/>
<path d="M230.06 79.89H269.99V87.61H221.45V12.57H230.06V79.89Z" fill="#D2B32B"/>
<path d="M268.05 87.6V79.89H282.38V47.39H290.61V68.95C290.61 72.16 291.6 74.79 293.57 76.84C295.54 78.88 298.08 79.9 301.16 79.9H307.17V47.4H315.4V68.96C315.4 72.17 316.38 74.8 318.35 76.85C320.32 78.89 322.85 79.91 325.95 79.91H331.95V39.74H340.18V70.46C340.18 73.35 341.06 75.65 342.84 77.35C344.6 79.06 346.92 79.91 349.79 79.91H351.35V87.62H351.06C345.67 87.62 342.04 85.74 340.18 81.98V87.62H326.23C320.81 87.62 317.2 85.74 315.41 81.98V87.62H301.46C296.04 87.62 292.43 85.74 290.63 81.98V87.62H268.05V87.6Z" fill="#D2B32B"/>
<path d="M391.38 79.89C388.86 77.13 386.83 71.1 385.27 61.81C384.3 55.99 382.92 51.97 381.13 49.75C379.36 47.53 376.67 46.43 373.07 46.43C368.73 46.43 364.04 47.74 359.03 50.38L355.67 43.58C360.63 40.34 366.46 38.71 373.18 38.71C378.76 38.71 383.15 40.23 386.35 43.27C389.55 46.31 391.75 51.73 392.95 59.54C394.59 70.28 397.02 77.12 400.23 80.08V87.61H349.4V79.89H391.38V79.89Z" fill="#D2B32B"/>
<path d="M421.4 87.61H412.8V12.58H421.4V87.61ZM426.89 110.12C422.92 110.12 416.67 110.91 408.17 112.49V107.95L412.75 107.28C410.49 105.67 409.35 103.6 409.35 101.05C409.35 98.22 410.26 96.03 412.09 94.47C413.92 92.91 416.3 92.14 419.23 92.14C421.5 92.14 423.64 92.63 425.62 93.63L424.15 98.06C422.55 97.3 420.93 96.91 419.33 96.91C415.95 96.91 414.27 98.58 414.27 101.93C414.27 104.02 415.24 105.56 417.2 106.56C422.84 105.76 426.08 105.34 426.89 105.31V110.12Z" fill="#D2B32B"/>
<path d="M11 226.46C10.17 225.19 9.55 223.83 9.14 222.39C8.73 220.94 8.53 219.5 8.53 218.07C8.53 216.64 8.73 215.19 9.14 213.75C9.55 212.3 10.16 210.94 11 209.68C11.1 209.54 11.21 209.47 11.33 209.47H12.06C12.21 209.47 12.25 209.54 12.19 209.68C11.56 210.95 11.07 212.31 10.73 213.75C10.38 215.2 10.21 216.64 10.21 218.07C10.21 219.5 10.38 220.95 10.73 222.41C11.08 223.87 11.57 225.23 12.19 226.47C12.26 226.61 12.22 226.68 12.06 226.68H11.33C11.21 226.67 11.1 226.6 11 226.46Z" fill="#676767"/>
<path d="M20.06 222.06V220.82V219.58L25.42 209.05H27.46H29.5V220.2H30.91V222.07H29.5V224.93H27.24V222.07H20.06V222.06ZM27.23 220.19V210.38L27.06 210.34L22.12 219.57L21.77 220.19H27.23Z" fill="#676767"/>
<path d="M39.99 216.79C40.7 216.96 41.29 217.22 41.74 217.58C42.6 218.26 43.02 219.31 43.02 220.73C43.02 222.11 42.55 223.2 41.6 224.01C40.65 224.82 39.37 225.22 37.75 225.22C36.24 225.22 34.99 224.8 33.99 223.94C32.99 223.09 32.49 222.01 32.49 220.72C32.49 219.44 32.97 218.42 33.92 217.67C34.4 217.28 34.98 217 35.66 216.81C35.05 216.62 34.52 216.32 34.07 215.93C33.17 215.15 32.71 214.1 32.71 212.78C32.71 211.63 33.19 210.68 34.15 209.92C35.11 209.16 36.31 208.78 37.76 208.78C39.38 208.78 40.63 209.13 41.5 209.82C42.38 210.51 42.82 211.5 42.82 212.78C42.82 214.11 42.36 215.16 41.45 215.94C41.03 216.32 40.54 216.59 39.99 216.79ZM37.76 217.85C36.78 217.85 36.01 218.09 35.44 218.58C34.87 219.07 34.58 219.72 34.58 220.54C34.58 221.43 34.87 222.14 35.44 222.66C36.01 223.18 36.79 223.44 37.76 223.44C38.74 223.44 39.52 223.18 40.09 222.66C40.66 222.14 40.95 221.43 40.95 220.54C40.95 219.72 40.66 219.06 40.08 218.57C39.51 218.09 38.74 217.85 37.76 217.85ZM37.76 216.03C38.67 216.03 39.4 215.78 39.93 215.29C40.47 214.8 40.74 214.14 40.74 213.3C40.74 212.52 40.47 211.91 39.93 211.46C39.39 211.01 38.67 210.78 37.76 210.78C36.85 210.78 36.13 211.01 35.59 211.46C35.05 211.91 34.79 212.53 34.79 213.3C34.79 214.14 35.06 214.8 35.6 215.29C36.13 215.78 36.85 216.03 37.76 216.03Z" fill="#676767"/>
<path d="M50.61 211.41C49.95 212.14 49.32 212.77 48.72 213.3C47.85 214.08 46.74 214.92 45.37 215.82V213.81C46.49 213.03 47.41 212.31 48.12 211.64C48.84 210.97 49.63 210.11 50.5 209.05H52.79V224.92H51.7H50.6V211.41H50.61Z" fill="#676767"/>
<path d="M62.28 226.46C62.91 225.22 63.39 223.87 63.74 222.4C64.09 220.94 64.26 219.49 64.26 218.06C64.26 216.63 64.08 215.18 63.74 213.74C63.39 212.29 62.91 210.93 62.28 209.67C62.21 209.53 62.25 209.46 62.4 209.46H63.13C63.26 209.46 63.37 209.53 63.46 209.67C64.29 210.94 64.91 212.3 65.32 213.74C65.73 215.19 65.93 216.63 65.93 218.06C65.93 219.49 65.73 220.93 65.32 222.38C64.91 223.83 64.3 225.18 63.46 226.45C63.36 226.59 63.25 226.66 63.13 226.66H62.4C62.25 226.67 62.2 226.6 62.28 226.46Z" fill="#676767"/>
<path d="M79.53 225.06C78.8 225.06 78.17 224.94 77.62 224.7C77.07 224.46 76.62 224.08 76.27 223.57C76.13 223.8 75.97 223.96 75.78 224.05C75.59 224.15 75.41 224.25 75.24 224.37C75.07 224.48 74.92 224.63 74.79 224.81C74.66 224.99 74.6 225.28 74.6 225.67V229.07H72.85V225.23C72.85 224.8 72.91 224.44 73.04 224.16C73.17 223.88 73.33 223.64 73.52 223.45C73.71 223.26 73.93 223.11 74.16 222.98C74.39 222.85 74.61 222.73 74.81 222.6C75.01 222.47 75.18 222.33 75.33 222.17C75.48 222.01 75.56 221.8 75.59 221.53C75.58 221.38 75.57 221.22 75.56 221.06C75.55 220.9 75.55 220.73 75.55 220.54C75.55 218.94 75.91 217.78 76.62 217.06C77.33 216.34 78.31 215.98 79.54 215.98C80.78 215.98 81.75 216.34 82.46 217.06C83.17 217.77 83.52 218.94 83.52 220.54C83.52 220.7 83.52 220.85 83.51 221C83.5 221.16 83.49 221.3 83.48 221.44C83.49 222.15 83.64 222.63 83.91 222.89C84.18 223.15 84.47 223.28 84.78 223.28H85.36C85.64 223.28 85.85 223.34 85.99 223.46C86.13 223.58 86.2 223.78 86.2 224.05C86.2 224.41 86.13 224.65 86 224.75C85.87 224.85 85.66 224.91 85.36 224.91H84.92C84.73 224.91 84.52 224.9 84.29 224.88C84.07 224.86 83.85 224.81 83.63 224.74C83.42 224.67 83.21 224.57 83.01 224.44C82.82 224.31 82.65 224.13 82.51 223.91C82.16 224.31 81.74 224.6 81.23 224.79C80.74 224.97 80.17 225.06 79.53 225.06ZM79.53 217.62C78.75 217.62 78.18 217.88 77.83 218.4C77.47 218.92 77.3 219.63 77.3 220.55C77.3 221.56 77.48 222.29 77.83 222.75C78.19 223.21 78.75 223.44 79.53 223.44C80.31 223.44 80.88 223.21 81.23 222.75C81.59 222.29 81.76 221.56 81.76 220.55C81.76 219.63 81.58 218.92 81.23 218.4C80.88 217.88 80.31 217.62 79.53 217.62Z" fill="#676767"/>
<path d="M85.63 224.91C85.34 224.91 85.13 224.86 84.99 224.75C84.86 224.65 84.79 224.41 84.79 224.05C84.79 223.77 84.86 223.57 85 223.46C85.14 223.35 85.35 223.28 85.63 223.28H87.99C87.58 222.6 87.38 221.69 87.38 220.54C87.38 219.75 87.48 219.06 87.68 218.49C87.88 217.91 88.16 217.44 88.52 217.07C88.88 216.7 89.3 216.43 89.79 216.26C90.27 216.09 90.8 216 91.37 216C92.61 216 93.58 216.36 94.29 217.08C95 217.79 95.36 218.96 95.36 220.56C95.36 221.36 95.27 222.03 95.08 222.59C94.89 223.15 94.63 223.6 94.29 223.94C93.95 224.28 93.53 224.53 93.04 224.69C92.55 224.85 91.99 224.93 91.38 224.93H85.63V224.91ZM89.35 214.3C89.21 214.3 89.14 214.23 89.14 214.09V212.56C89.14 212.42 89.21 212.35 89.35 212.35H90.77C90.91 212.35 90.98 212.42 90.98 212.56V214.09C90.98 214.23 90.91 214.3 90.77 214.3H89.35ZM91.37 217.62C90.63 217.62 90.07 217.87 89.7 218.37C89.33 218.87 89.14 219.55 89.14 220.42C89.14 221.45 89.32 222.19 89.67 222.63C90.02 223.07 90.59 223.29 91.37 223.29C92.15 223.29 92.72 223.09 93.07 222.67C93.43 222.26 93.6 221.55 93.6 220.55C93.6 219.63 93.42 218.92 93.07 218.4C92.72 217.88 92.15 217.62 91.37 217.62ZM91.9 214.3C91.76 214.3 91.69 214.23 91.69 214.09V212.56C91.69 212.42 91.76 212.35 91.9 212.35H93.32C93.46 212.35 93.53 212.42 93.53 212.56V214.09C93.53 214.23 93.46 214.3 93.32 214.3H91.9Z" fill="#676767"/>
<path d="M96.83 229.07C96.69 229.07 96.62 229 96.62 228.86V227.65C96.62 227.51 96.69 227.44 96.83 227.44H97.31C98.44 227.44 99 226.85 99 225.67V216.58C99 216.44 99.07 216.37 99.21 216.37H100.55C100.69 216.37 100.76 216.44 100.76 216.58V221.87C100.76 222.34 100.93 222.7 101.27 222.94C101.61 223.18 102.07 223.3 102.64 223.3H102.87C103.15 223.3 103.36 223.36 103.5 223.48C103.64 223.6 103.71 223.8 103.71 224.07C103.71 224.43 103.64 224.67 103.51 224.77C103.38 224.87 103.17 224.93 102.87 224.93H102.43C101.71 224.93 101.15 224.71 100.76 224.26V225.64C100.76 226.77 100.47 227.62 99.9 228.21C99.33 228.79 98.49 229.09 97.39 229.09H96.83V229.07Z" fill="#676767"/>
<path d="M102.86 224.91C102.58 224.91 102.37 224.86 102.23 224.76C102.09 224.66 102.02 224.47 102.02 224.18C102.02 223.83 102.09 223.6 102.22 223.47C102.35 223.34 102.56 223.28 102.86 223.28H104.18C104.53 223.28 104.78 223.2 104.94 223.04C105.1 222.88 105.18 222.59 105.18 222.17V216.57C105.18 216.43 105.25 216.36 105.39 216.36H106.73C106.87 216.36 106.94 216.43 106.94 216.57V222.28C106.94 223.19 106.75 223.85 106.38 224.27C106 224.69 105.38 224.91 104.5 224.91H102.86ZM104.87 228.74C104.73 228.74 104.66 228.67 104.66 228.53V227C104.66 226.86 104.73 226.79 104.87 226.79H106.29C106.43 226.79 106.5 226.86 106.5 227V228.53C106.5 228.67 106.43 228.74 106.29 228.74H104.87V228.74Z" fill="#676767"/>
<path d="M120.2 215.99V215.09C120.2 214.95 120.27 214.88 120.41 214.88H121.75C121.89 214.88 121.96 214.95 121.96 215.09V222.17C121.96 222.59 122.04 222.88 122.2 223.04C122.36 223.2 122.62 223.28 122.96 223.28H123.88C124.44 223.28 124.71 223.56 124.71 224.12C124.71 224.47 124.65 224.69 124.51 224.78C124.38 224.87 124.17 224.91 123.87 224.91H122.64C121.96 224.91 121.42 224.78 121.04 224.52C120.66 224.26 120.4 223.84 120.28 223.23C120 223.48 119.67 223.67 119.28 223.79C118.89 223.92 118.47 223.98 118.01 223.98C117.47 223.98 116.96 223.9 116.5 223.75C116.04 223.6 115.63 223.36 115.29 223.05C114.95 222.74 114.68 222.34 114.49 221.86C114.3 221.38 114.2 220.81 114.2 220.16C114.2 219.38 114.31 218.73 114.53 218.19C114.75 217.66 115.05 217.24 115.41 216.91C115.77 216.58 116.19 216.35 116.67 216.2C117.15 216.05 117.65 215.98 118.16 215.98H120.2V215.99ZM118.03 222.37C118.82 222.37 119.38 222.14 119.71 221.67C120.04 221.21 120.2 220.55 120.2 219.72V217.63H118.15C117.5 217.63 116.96 217.82 116.55 218.18C116.14 218.55 115.93 219.22 115.93 220.18C115.93 220.9 116.11 221.45 116.47 221.82C116.84 222.18 117.36 222.37 118.03 222.37ZM116.21 213.47C116.07 213.47 116 213.4 116 213.26V211.73C116 211.59 116.07 211.52 116.21 211.52H117.63C117.77 211.52 117.84 211.59 117.84 211.73V213.26C117.84 213.4 117.77 213.47 117.63 213.47H116.21ZM118.76 213.47C118.62 213.47 118.55 213.4 118.55 213.26V211.73C118.55 211.59 118.62 211.52 118.76 211.52H120.18C120.32 211.52 120.39 211.59 120.39 211.73V213.26C120.39 213.4 120.32 213.47 120.18 213.47H118.76Z" fill="#676767"/>
<path d="M124.02 224.91C123.74 224.91 123.53 224.86 123.39 224.76C123.25 224.66 123.18 224.47 123.18 224.18C123.18 223.83 123.24 223.6 123.38 223.47C123.51 223.34 123.73 223.28 124.02 223.28H125.44C125.79 223.28 126.04 223.2 126.2 223.04C126.36 222.88 126.44 222.59 126.44 222.17V216.57C126.44 216.43 126.51 216.36 126.65 216.36H127.99C128.13 216.36 128.2 216.43 128.2 216.57V221.86C128.2 222.33 128.37 222.69 128.71 222.93C129.05 223.17 129.51 223.29 130.08 223.29H130.33C130.61 223.29 130.82 223.35 130.96 223.47C131.1 223.59 131.17 223.79 131.17 224.06C131.17 224.42 131.1 224.66 130.97 224.76C130.84 224.86 130.63 224.92 130.33 224.92H129.87C129.42 224.92 129.04 224.83 128.7 224.65C128.37 224.47 128.11 224.2 127.93 223.84C127.58 224.56 126.86 224.93 125.76 224.93H124.02V224.91ZM125.09 228.8C124.95 228.8 124.88 228.73 124.88 228.59V227.07C124.88 226.93 124.95 226.86 125.09 226.86H126.51C126.65 226.86 126.72 226.93 126.72 227.07V228.59C126.72 228.73 126.65 228.8 126.51 228.8H125.09ZM127.64 228.8C127.5 228.8 127.43 228.73 127.43 228.59V227.07C127.43 226.93 127.5 226.86 127.64 226.86H129.06C129.2 226.86 129.27 226.93 129.27 227.07V228.59C129.27 228.73 129.2 228.8 129.06 228.8H127.64Z" fill="#676767"/>
<path d="M139.96 223.28C140.1 223.28 140.17 223.35 140.17 223.49V224.7C140.17 224.84 140.1 224.91 139.96 224.91H130.33C129.77 224.91 129.49 224.63 129.49 224.07C129.49 223.72 129.56 223.5 129.69 223.41C129.82 223.32 130.03 223.28 130.33 223.28H132.71C132.39 222.96 132.11 222.56 131.88 222.07C131.65 221.58 131.54 221 131.54 220.32C131.54 219.89 131.6 219.42 131.73 218.91C131.86 218.4 132.09 217.93 132.43 217.5C132.77 217.07 133.23 216.71 133.81 216.42C134.39 216.13 135.13 215.99 136.04 215.99C136.86 215.99 137.57 216.14 138.17 216.44C138.77 216.74 139.25 217.15 139.61 217.68C139.68 217.79 139.66 217.89 139.55 217.97L138.63 218.72C138.52 218.8 138.42 218.8 138.34 218.7C137.71 217.98 136.93 217.61 135.98 217.61C135.12 217.61 134.48 217.87 134.06 218.37C133.64 218.88 133.43 219.52 133.43 220.29C133.43 220.81 133.51 221.24 133.68 221.6C133.85 221.96 134.04 222.26 134.25 222.5C134.46 222.73 134.69 222.91 134.91 223.03C135.13 223.15 135.31 223.22 135.43 223.27H139.96V223.28Z" fill="#676767"/>
<path d="M142.57 210.92C142.57 210.78 142.64 210.71 142.78 210.71H144.12C144.26 210.71 144.33 210.78 144.33 210.92V222.18C144.33 222.6 144.41 222.89 144.57 223.05C144.73 223.21 144.98 223.29 145.33 223.29H146.25C146.81 223.29 147.09 223.57 147.09 224.13C147.09 224.48 147.02 224.7 146.89 224.79C146.76 224.88 146.55 224.92 146.25 224.92H145.02C144.14 224.92 143.52 224.71 143.14 224.28C142.77 223.86 142.58 223.19 142.58 222.29V210.92H142.57Z" fill="#676767"/>
<path d="M152.56 225.06C151.91 225.06 151.33 224.96 150.83 224.78C150.33 224.59 149.9 224.29 149.55 223.89C149.26 224.34 148.88 224.62 148.42 224.73C147.96 224.85 147.53 224.91 147.15 224.91H146.25C145.69 224.91 145.41 224.63 145.41 224.07C145.41 223.72 145.48 223.5 145.61 223.41C145.74 223.32 145.95 223.28 146.25 223.28H147.29C147.44 223.28 147.6 223.25 147.75 223.18C147.9 223.12 148.04 223.02 148.17 222.87C148.3 222.72 148.4 222.53 148.47 222.29C148.55 222.05 148.58 221.74 148.58 221.38C148.56 221.24 148.56 221.11 148.56 220.97C148.56 220.84 148.56 220.7 148.56 220.54C148.56 218.94 148.92 217.78 149.63 217.06C150.34 216.34 151.32 215.98 152.55 215.98C153.78 215.98 154.76 216.34 155.47 217.06C156.18 217.77 156.53 218.94 156.53 220.54C156.53 220.7 156.53 220.85 156.52 221C156.51 221.16 156.5 221.3 156.49 221.44C156.51 222.15 156.65 222.63 156.92 222.89C157.19 223.15 157.48 223.28 157.79 223.28H158.4C158.68 223.28 158.89 223.34 159.03 223.46C159.17 223.58 159.24 223.78 159.24 224.05C159.24 224.41 159.17 224.65 159.04 224.75C158.91 224.85 158.7 224.91 158.4 224.91H157.94C157.74 224.91 157.53 224.9 157.31 224.88C157.09 224.86 156.87 224.81 156.65 224.74C156.43 224.67 156.23 224.57 156.03 224.44C155.84 224.31 155.67 224.13 155.53 223.91C155.18 224.31 154.76 224.6 154.26 224.79C153.77 224.97 153.2 225.06 152.56 225.06ZM152.56 217.62C151.78 217.62 151.21 217.88 150.86 218.4C150.5 218.92 150.33 219.63 150.33 220.55C150.33 221.56 150.51 222.29 150.86 222.75C151.22 223.21 151.78 223.44 152.56 223.44C153.34 223.44 153.91 223.21 154.26 222.75C154.62 222.29 154.79 221.56 154.79 220.55C154.79 219.63 154.61 218.92 154.26 218.4C153.91 217.88 153.34 217.62 152.56 217.62Z" fill="#676767"/>
<path d="M158.53 224.91C158.25 224.91 158.04 224.86 157.9 224.76C157.76 224.66 157.69 224.47 157.69 224.18C157.69 223.83 157.75 223.6 157.89 223.47C158.02 223.34 158.24 223.28 158.53 223.28H159.95C160.3 223.28 160.55 223.2 160.71 223.04C160.87 222.88 160.95 222.59 160.95 222.17V216.57C160.95 216.43 161.02 216.36 161.16 216.36H162.5C162.64 216.36 162.71 216.43 162.71 216.57V221.86C162.71 222.33 162.88 222.69 163.22 222.93C163.56 223.17 164.02 223.29 164.59 223.29H164.84C165.12 223.29 165.33 223.35 165.47 223.47C165.61 223.59 165.68 223.79 165.68 224.06C165.68 224.42 165.61 224.66 165.48 224.76C165.35 224.86 165.14 224.92 164.84 224.92H164.38C163.93 224.92 163.55 224.83 163.21 224.65C162.88 224.47 162.62 224.2 162.44 223.84C162.09 224.56 161.37 224.93 160.27 224.93H158.53V224.91ZM159.81 214.3C159.67 214.3 159.6 214.23 159.6 214.09V212.56C159.6 212.42 159.67 212.35 159.81 212.35H161.23C161.37 212.35 161.44 212.42 161.44 212.56V214.09C161.44 214.23 161.37 214.3 161.23 214.3H159.81ZM162.36 214.3C162.22 214.3 162.15 214.23 162.15 214.09V212.56C162.15 212.42 162.22 212.35 162.36 212.35H163.78C163.92 212.35 163.99 212.42 163.99 212.56V214.09C163.99 214.23 163.92 214.3 163.78 214.3H162.36Z" fill="#676767"/>
<path d="M169.73 217.62C169.26 217.62 168.82 217.72 168.43 217.91C168.03 218.1 167.68 218.37 167.37 218.7C167.29 218.8 167.19 218.8 167.08 218.72L166.16 217.97C166.04 217.87 166.01 217.78 166.1 217.68C166.49 217.19 166.97 216.79 167.55 216.47C168.13 216.15 168.83 215.99 169.67 215.99C170.63 215.99 171.42 216.14 172.03 216.44C172.64 216.74 173.13 217.13 173.49 217.62C173.85 218.11 174.1 218.67 174.24 219.31C174.38 219.95 174.45 220.61 174.45 221.29C174.45 221.99 174.39 222.56 174.27 223.02C174.15 223.48 173.97 223.85 173.72 224.13C173.47 224.41 173.16 224.61 172.77 224.72C172.38 224.84 171.93 224.9 171.42 224.9H164.84C164.28 224.9 164 224.62 164 224.06C164 223.71 164.07 223.49 164.2 223.4C164.33 223.31 164.54 223.27 164.84 223.27H170.77C171.16 223.27 171.47 223.24 171.71 223.17C171.95 223.11 172.13 223 172.25 222.85C172.38 222.69 172.46 222.49 172.5 222.23C172.54 221.97 172.56 221.66 172.56 221.28C172.56 220.74 172.51 220.24 172.41 219.79C172.31 219.34 172.16 218.95 171.94 218.62C171.72 218.3 171.44 218.04 171.07 217.87C170.72 217.71 170.27 217.62 169.73 217.62ZM169.35 228.76C169.21 228.76 169.14 228.69 169.14 228.55V227.02C169.14 226.88 169.21 226.81 169.35 226.81H170.77C170.91 226.81 170.98 226.88 170.98 227.02V228.55C170.98 228.69 170.91 228.76 170.77 228.76H169.35Z" fill="#676767"/>
<path d="M182.49 223.28H184.94C185.29 223.28 185.54 223.2 185.7 223.04C185.86 222.88 185.94 222.59 185.94 222.17V210.91C185.94 210.77 186.01 210.7 186.15 210.7H187.49C187.63 210.7 187.7 210.77 187.7 210.91V222.28C187.7 223.19 187.51 223.85 187.14 224.27C186.76 224.69 186.14 224.91 185.26 224.91H176.63C176.49 224.91 176.42 224.84 176.42 224.7V223.49C176.42 223.35 176.49 223.28 176.63 223.28H180.75V213.86C180.75 213.72 180.82 213.65 180.96 213.65H182.3C182.44 213.65 182.51 213.72 182.51 213.86V223.28H182.49Z" fill="#676767"/>
<path d="M192.37 224.71C192.37 224.85 192.3 224.92 192.16 224.92H190.82C190.68 224.92 190.61 224.85 190.61 224.71V210.92C190.61 210.78 190.68 210.71 190.82 210.71H192.16C192.3 210.71 192.37 210.78 192.37 210.92V224.71Z" fill="#676767"/>
<path d="M205.64 215.99V215.09C205.64 214.95 205.71 214.88 205.85 214.88H207.19C207.33 214.88 207.4 214.95 207.4 215.09V222.17C207.4 222.59 207.48 222.88 207.64 223.04C207.8 223.2 208.06 223.28 208.4 223.28H209.32C209.88 223.28 210.15 223.56 210.15 224.12C210.15 224.47 210.08 224.69 209.95 224.78C209.82 224.87 209.61 224.91 209.31 224.91H208.08C207.4 224.91 206.86 224.78 206.48 224.52C206.1 224.26 205.84 223.84 205.72 223.23C205.44 223.48 205.11 223.67 204.72 223.79C204.33 223.92 203.91 223.98 203.45 223.98C202.91 223.98 202.4 223.9 201.94 223.75C201.48 223.6 201.07 223.36 200.73 223.05C200.39 222.74 200.12 222.34 199.93 221.86C199.74 221.38 199.64 220.81 199.64 220.16C199.64 219.38 199.75 218.73 199.97 218.19C200.19 217.66 200.49 217.24 200.85 216.91C201.21 216.58 201.63 216.35 202.11 216.2C202.59 216.05 203.09 215.98 203.6 215.98H205.64V215.99ZM203.47 222.37C204.26 222.37 204.82 222.14 205.15 221.67C205.48 221.21 205.64 220.55 205.64 219.72V217.63H203.59C202.94 217.63 202.4 217.82 201.99 218.18C201.58 218.55 201.37 219.22 201.37 220.18C201.37 220.9 201.55 221.45 201.91 221.82C202.27 222.19 202.8 222.37 203.47 222.37ZM201.65 213.47C201.51 213.47 201.44 213.4 201.44 213.26V211.73C201.44 211.59 201.51 211.52 201.65 211.52H203.07C203.21 211.52 203.28 211.59 203.28 211.73V213.26C203.28 213.4 203.21 213.47 203.07 213.47H201.65ZM204.2 213.47C204.06 213.47 203.99 213.4 203.99 213.26V211.73C203.99 211.59 204.06 211.52 204.2 211.52H205.62C205.76 211.52 205.83 211.59 205.83 211.73V213.26C205.83 213.4 205.76 213.47 205.62 213.47H204.2Z" fill="#676767"/>
<path d="M209.46 224.91C209.18 224.91 208.97 224.86 208.83 224.76C208.69 224.66 208.62 224.47 208.62 224.18C208.62 223.83 208.69 223.6 208.82 223.47C208.95 223.34 209.17 223.28 209.46 223.28H210.88C211.23 223.28 211.48 223.2 211.64 223.04C211.8 222.88 211.88 222.59 211.88 222.17V216.57C211.88 216.43 211.95 216.36 212.09 216.36H213.43C213.57 216.36 213.64 216.43 213.64 216.57V221.86C213.64 222.33 213.81 222.69 214.15 222.93C214.49 223.17 214.95 223.29 215.52 223.29H215.77C216.05 223.29 216.26 223.35 216.4 223.47C216.54 223.59 216.61 223.79 216.61 224.06C216.61 224.42 216.54 224.66 216.41 224.76C216.28 224.86 216.07 224.92 215.77 224.92H215.31C214.86 224.92 214.48 224.83 214.14 224.65C213.81 224.47 213.55 224.2 213.37 223.84C213.02 224.56 212.3 224.93 211.2 224.93H209.46V224.91ZM210.52 228.8C210.38 228.8 210.31 228.73 210.31 228.59V227.07C210.31 226.93 210.38 226.86 210.52 226.86H211.94C212.08 226.86 212.15 226.93 212.15 227.07V228.59C212.15 228.73 212.08 228.8 211.94 228.8H210.52ZM213.07 228.8C212.93 228.8 212.86 228.73 212.86 228.59V227.07C212.86 226.93 212.93 226.86 213.07 226.86H214.49C214.63 226.86 214.7 226.93 214.7 227.07V228.59C214.7 228.73 214.63 228.8 214.49 228.8H213.07Z" fill="#676767"/>
<path d="M222.08 225.06C221.43 225.06 220.85 224.96 220.35 224.78C219.85 224.59 219.42 224.29 219.07 223.89C218.78 224.34 218.4 224.62 217.94 224.73C217.48 224.85 217.05 224.91 216.67 224.91H215.77C215.21 224.91 214.93 224.63 214.93 224.07C214.93 223.72 215 223.5 215.13 223.41C215.26 223.32 215.47 223.28 215.77 223.28H216.81C216.96 223.28 217.12 223.25 217.27 223.18C217.42 223.12 217.56 223.02 217.69 222.87C217.82 222.72 217.92 222.53 217.99 222.29C218.07 222.05 218.1 221.74 218.1 221.38C218.08 221.24 218.08 221.11 218.08 220.97C218.08 220.84 218.08 220.7 218.08 220.54C218.08 218.94 218.44 217.78 219.15 217.06C219.86 216.34 220.84 215.98 222.07 215.98C223.3 215.98 224.28 216.34 224.99 217.06C225.7 217.77 226.05 218.94 226.05 220.54C226.05 220.7 226.05 220.85 226.04 221C226.03 221.16 226.02 221.3 226.01 221.44C226.03 222.15 226.17 222.63 226.44 222.89C226.71 223.15 227 223.28 227.31 223.28H227.92C228.2 223.28 228.41 223.34 228.55 223.46C228.69 223.58 228.76 223.78 228.76 224.05C228.76 224.41 228.7 224.65 228.56 224.75C228.43 224.85 228.22 224.91 227.92 224.91H227.46C227.26 224.91 227.05 224.9 226.83 224.88C226.61 224.86 226.39 224.81 226.17 224.74C225.95 224.67 225.75 224.57 225.55 224.44C225.35 224.31 225.19 224.13 225.05 223.91C224.7 224.31 224.28 224.6 223.78 224.79C223.29 224.97 222.72 225.06 222.08 225.06ZM222.08 217.62C221.3 217.62 220.73 217.88 220.38 218.4C220.03 218.92 219.85 219.63 219.85 220.55C219.85 221.56 220.03 222.29 220.38 222.75C220.74 223.21 221.3 223.44 222.08 223.44C222.86 223.44 223.43 223.21 223.78 222.75C224.14 222.29 224.31 221.56 224.31 220.55C224.31 219.63 224.13 218.92 223.78 218.4C223.43 217.88 222.86 217.62 222.08 217.62Z" fill="#676767"/>
<path d="M228.05 224.91C227.77 224.91 227.56 224.86 227.42 224.76C227.28 224.66 227.21 224.47 227.21 224.18C227.21 223.83 227.28 223.6 227.41 223.47C227.54 223.34 227.76 223.28 228.05 223.28H229.37C229.72 223.28 229.97 223.2 230.13 223.04C230.29 222.88 230.37 222.59 230.37 222.17V216.57C230.37 216.43 230.44 216.36 230.58 216.36H231.92C232.06 216.36 232.13 216.43 232.13 216.57V221.86C232.13 222.33 232.3 222.69 232.64 222.93C232.98 223.17 233.44 223.29 234.01 223.29H234.26C234.54 223.29 234.75 223.35 234.89 223.47C235.03 223.59 235.1 223.79 235.1 224.06C235.1 224.42 235.03 224.66 234.9 224.76C234.77 224.86 234.56 224.92 234.26 224.92H233.8C233.35 224.92 232.96 224.83 232.63 224.65C232.3 224.47 232.04 224.2 231.86 223.84C231.51 224.56 230.79 224.93 229.69 224.93H228.05V224.91ZM230.54 214.3C230.4 214.3 230.33 214.23 230.33 214.09V212.56C230.33 212.42 230.4 212.35 230.54 212.35H231.96C232.1 212.35 232.17 212.42 232.17 212.56V214.09C232.17 214.23 232.1 214.3 231.96 214.3H230.54Z" fill="#676767"/>
<path d="M234.23 224.91C233.95 224.91 233.74 224.86 233.6 224.76C233.46 224.66 233.39 224.47 233.39 224.18C233.39 223.83 233.46 223.6 233.59 223.47C233.72 223.34 233.94 223.28 234.23 223.28H235.65C236 223.28 236.25 223.2 236.41 223.04C236.57 222.88 236.65 222.59 236.65 222.17V216.57C236.65 216.43 236.72 216.36 236.86 216.36H238.2C238.34 216.36 238.41 216.43 238.41 216.57V221.86C238.41 222.33 238.58 222.69 238.92 222.93C239.26 223.17 239.72 223.29 240.29 223.29H240.54C240.82 223.29 241.03 223.35 241.17 223.47C241.31 223.59 241.38 223.79 241.38 224.06C241.38 224.42 241.31 224.66 241.18 224.76C241.05 224.86 240.84 224.92 240.54 224.92H240.08C239.63 224.92 239.25 224.83 238.91 224.65C238.58 224.47 238.32 224.2 238.14 223.84C237.79 224.56 237.07 224.93 235.97 224.93H234.23V224.91ZM235.51 214.3C235.37 214.3 235.3 214.23 235.3 214.09V212.56C235.3 212.42 235.37 212.35 235.51 212.35H236.93C237.07 212.35 237.14 212.42 237.14 212.56V214.09C237.14 214.23 237.07 214.3 236.93 214.3H235.51ZM238.06 214.3C237.92 214.3 237.85 214.23 237.85 214.09V212.56C237.85 212.42 237.92 212.35 238.06 212.35H239.48C239.62 212.35 239.69 212.42 239.69 212.56V214.09C239.69 214.23 239.62 214.3 239.48 214.3H238.06Z" fill="#676767"/>
<path d="M240.54 224.91C240.26 224.91 240.05 224.86 239.91 224.76C239.77 224.66 239.7 224.47 239.7 224.18C239.7 223.83 239.77 223.6 239.9 223.47C240.03 223.34 240.24 223.28 240.54 223.28H241.86C242.21 223.28 242.46 223.2 242.62 223.04C242.78 222.88 242.86 222.59 242.86 222.17V210.91C242.86 210.77 242.93 210.7 243.07 210.7H244.41C244.55 210.7 244.62 210.77 244.62 210.91V222.28C244.62 223.19 244.43 223.85 244.06 224.27C243.68 224.69 243.06 224.91 242.18 224.91H240.54V224.91Z" fill="#676767"/>
<path d="M249.3 224.71C249.3 224.85 249.23 224.92 249.09 224.92H247.75C247.61 224.92 247.54 224.85 247.54 224.71V210.92C247.54 210.78 247.61 210.71 247.75 210.71H249.09C249.23 210.71 249.3 210.78 249.3 210.92V224.71Z" fill="#676767"/>
<path d="M253.68 229.07C253.54 229.07 253.47 229 253.47 228.86V227.65C253.47 227.51 253.54 227.44 253.68 227.44H256.19C256.47 227.44 256.73 227.41 256.96 227.35C257.2 227.29 257.4 227.18 257.58 227.03C257.75 226.89 257.89 226.68 257.99 226.43C258.09 226.17 258.14 225.85 258.14 225.46V224.92H255.9C255.29 224.92 254.73 224.85 254.24 224.7C253.75 224.56 253.33 224.32 252.98 223.99C252.63 223.67 252.37 223.23 252.19 222.69C252.01 222.15 251.92 221.48 251.92 220.68C251.92 219.89 252.03 219.19 252.23 218.6C252.44 218.01 252.73 217.52 253.1 217.14C253.47 216.76 253.9 216.47 254.38 216.29C254.87 216.1 255.39 216 255.95 216C257.19 216 258.16 216.36 258.85 217.08C259.55 217.79 259.9 218.96 259.9 220.56V225.43C259.9 226.08 259.81 226.64 259.64 227.1C259.47 227.56 259.22 227.94 258.91 228.23C258.6 228.52 258.22 228.74 257.77 228.88C257.32 229.02 256.83 229.09 256.29 229.09H253.68V229.07ZM255.94 217.62C255.23 217.62 254.67 217.9 254.27 218.46C253.86 219.02 253.66 219.76 253.66 220.67C253.66 221.66 253.86 222.34 254.26 222.72C254.66 223.1 255.25 223.28 256.03 223.28H258.14V220.54C258.14 219.62 257.97 218.91 257.63 218.39C257.28 217.88 256.72 217.62 255.94 217.62Z" fill="#676767"/>
<path d="M273.05 215.99V215.09C273.05 214.95 273.12 214.88 273.26 214.88H274.6C274.74 214.88 274.81 214.95 274.81 215.09V222.17C274.81 222.59 274.89 222.88 275.05 223.04C275.21 223.2 275.47 223.28 275.81 223.28H276.73C277.29 223.28 277.56 223.56 277.56 224.12C277.56 224.47 277.49 224.69 277.36 224.78C277.23 224.87 277.02 224.91 276.72 224.91H275.49C274.81 224.91 274.27 224.78 273.89 224.52C273.51 224.26 273.25 223.84 273.13 223.23C272.85 223.48 272.52 223.67 272.13 223.79C271.74 223.92 271.32 223.98 270.86 223.98C270.32 223.98 269.81 223.9 269.35 223.75C268.88 223.6 268.48 223.36 268.14 223.05C267.8 222.74 267.53 222.34 267.34 221.86C267.14 221.38 267.05 220.81 267.05 220.16C267.05 219.38 267.16 218.73 267.38 218.19C267.6 217.66 267.9 217.24 268.26 216.91C268.62 216.58 269.04 216.35 269.52 216.2C270 216.05 270.5 215.98 271.01 215.98H273.05V215.99ZM270.87 222.37C271.66 222.37 272.22 222.14 272.55 221.67C272.88 221.21 273.04 220.55 273.04 219.72V217.63H271C270.35 217.63 269.81 217.82 269.4 218.18C268.99 218.55 268.78 219.22 268.78 220.18C268.78 220.9 268.96 221.45 269.32 221.82C269.69 222.18 270.2 222.37 270.87 222.37ZM269.06 213.47C268.92 213.47 268.85 213.4 268.85 213.26V211.73C268.85 211.59 268.92 211.52 269.06 211.52H270.48C270.62 211.52 270.69 211.59 270.69 211.73V213.26C270.69 213.4 270.62 213.47 270.48 213.47H269.06ZM271.6 213.47C271.46 213.47 271.39 213.4 271.39 213.26V211.73C271.39 211.59 271.46 211.52 271.6 211.52H273.02C273.16 211.52 273.23 211.59 273.23 211.73V213.26C273.23 213.4 273.16 213.47 273.02 213.47H271.6Z" fill="#676767"/>
<path d="M276.72 224.91C276.44 224.91 276.23 224.86 276.09 224.76C275.95 224.66 275.88 224.47 275.88 224.18C275.88 223.83 275.95 223.6 276.08 223.47C276.21 223.34 276.42 223.28 276.72 223.28H278.16C278.51 223.28 278.76 223.2 278.92 223.04C279.08 222.88 279.16 222.59 279.16 222.17V216.57C279.16 216.43 279.23 216.36 279.37 216.36H280.71C280.85 216.36 280.92 216.43 280.92 216.57V222.28C280.92 223.19 280.73 223.85 280.36 224.27C279.98 224.69 279.36 224.91 278.48 224.91H276.72ZM277.62 228.8C277.48 228.8 277.41 228.73 277.41 228.59V227.07C277.41 226.93 277.48 226.86 277.62 226.86H279.04C279.18 226.86 279.25 226.93 279.25 227.07V228.59C279.25 228.73 279.18 228.8 279.04 228.8H277.62ZM280.17 228.8C280.03 228.8 279.96 228.73 279.96 228.59V227.07C279.96 226.93 280.03 226.86 280.17 226.86H281.59C281.73 226.86 281.8 226.93 281.8 227.07V228.59C281.8 228.73 281.73 228.8 281.59 228.8H280.17Z" fill="#676767"/>
<path d="M282.7 229.07C282.56 229.07 282.49 229 282.49 228.86V227.65C282.49 227.51 282.56 227.44 282.7 227.44H283.18C284.31 227.44 284.87 226.85 284.87 225.67V216.58C284.87 216.44 284.94 216.37 285.08 216.37H286.42C286.56 216.37 286.63 216.44 286.63 216.58V221.87C286.63 222.34 286.8 222.7 287.14 222.94C287.48 223.18 287.94 223.3 288.51 223.3H288.74C289.02 223.3 289.23 223.36 289.37 223.48C289.51 223.6 289.58 223.8 289.58 224.07C289.58 224.43 289.51 224.67 289.38 224.77C289.25 224.87 289.04 224.93 288.74 224.93H288.3C287.58 224.93 287.02 224.71 286.63 224.26V225.64C286.63 226.77 286.34 227.62 285.77 228.21C285.2 228.79 284.36 229.09 283.26 229.09H282.7V229.07Z" fill="#676767"/>
<path d="M295.25 224.91C294.81 224.91 294.42 224.82 294.08 224.64C293.75 224.46 293.49 224.19 293.31 223.83C292.96 224.55 292.24 224.92 291.14 224.92H288.88C288.6 224.92 288.39 224.87 288.25 224.77C288.11 224.67 288.04 224.48 288.04 224.19C288.04 223.84 288.1 223.61 288.24 223.48C288.37 223.35 288.59 223.29 288.88 223.29H290.82C291.17 223.29 291.42 223.21 291.58 223.05C291.74 222.89 291.82 222.6 291.82 222.18V218.38C291.82 218.24 291.89 218.17 292.03 218.17H293.37C293.51 218.17 293.58 218.24 293.58 218.38V221.87C293.58 222.34 293.75 222.7 294.08 222.94C294.42 223.18 294.86 223.3 295.42 223.3H295.94C296.29 223.3 296.54 223.22 296.7 223.06C296.86 222.9 296.94 222.61 296.94 222.19V218.39C296.94 218.25 297.01 218.18 297.15 218.18H298.49C298.63 218.18 298.7 218.25 298.7 218.39V221.96C298.7 222.41 298.88 222.74 299.22 222.97C299.57 223.19 300.02 223.3 300.58 223.3H301.06C301.41 223.3 301.67 223.22 301.82 223.06C301.98 222.9 302.06 222.61 302.06 222.19V216.59C302.06 216.45 302.13 216.38 302.27 216.38H303.61C303.75 216.38 303.82 216.45 303.82 216.59V221.88C303.82 222.35 303.99 222.71 304.33 222.95C304.67 223.19 305.13 223.31 305.7 223.31H305.93C306.21 223.31 306.42 223.37 306.55 223.49C306.69 223.61 306.76 223.81 306.76 224.08C306.76 224.44 306.69 224.68 306.56 224.78C306.43 224.88 306.21 224.94 305.92 224.94H305.48C305.04 224.94 304.65 224.85 304.31 224.67C303.98 224.49 303.72 224.22 303.54 223.86C303.19 224.58 302.47 224.95 301.36 224.95H300.36C299.91 224.95 299.52 224.86 299.19 224.68C298.85 224.5 298.6 224.23 298.42 223.87C298.07 224.59 297.35 224.96 296.25 224.96H295.25V224.91ZM295.8 214.3C295.66 214.3 295.59 214.23 295.59 214.09V212.56C295.59 212.42 295.66 212.35 295.8 212.35H297.22C297.36 212.35 297.43 212.42 297.43 212.56V214.09C297.43 214.23 297.36 214.3 297.22 214.3H295.8ZM297.09 211.86C296.95 211.86 296.88 211.79 296.88 211.65V210.12C296.88 209.98 296.95 209.91 297.09 209.91H298.51C298.65 209.91 298.72 209.98 298.72 210.12V211.65C298.72 211.79 298.65 211.86 298.51 211.86H297.09ZM298.34 214.3C298.2 214.3 298.13 214.23 298.13 214.09V212.56C298.13 212.42 298.2 212.35 298.34 212.35H299.76C299.9 212.35 299.97 212.42 299.97 212.56V214.09C299.97 214.23 299.9 214.3 299.76 214.3H298.34Z" fill="#676767"/>
<path d="M305.93 224.91C305.65 224.91 305.44 224.86 305.3 224.76C305.16 224.66 305.09 224.47 305.09 224.18C305.09 223.83 305.15 223.6 305.29 223.47C305.42 223.34 305.63 223.28 305.93 223.28H307.24C307.59 223.28 307.84 223.2 308 223.04C308.16 222.88 308.24 222.59 308.24 222.17V216.57C308.24 216.43 308.31 216.36 308.45 216.36H309.79C309.93 216.36 310 216.43 310 216.57V221.86C310 222.33 310.17 222.69 310.51 222.93C310.85 223.17 311.31 223.29 311.88 223.29H312.13C312.41 223.29 312.62 223.35 312.75 223.47C312.89 223.59 312.96 223.79 312.96 224.06C312.96 224.42 312.89 224.66 312.77 224.76C312.64 224.86 312.42 224.92 312.13 224.92H311.67C311.22 224.92 310.83 224.83 310.5 224.65C310.16 224.47 309.91 224.2 309.72 223.84C309.37 224.56 308.65 224.93 307.55 224.93H305.93V224.91ZM308.45 228.74C308.31 228.74 308.24 228.67 308.24 228.53V227C308.24 226.86 308.31 226.79 308.45 226.79H309.87C310.01 226.79 310.08 226.86 310.08 227V228.53C310.08 228.67 310.01 228.74 309.87 228.74H308.45V228.74Z" fill="#676767"/>
<path d="M311.96 224.91C311.68 224.91 311.47 224.86 311.33 224.76C311.19 224.66 311.12 224.47 311.12 224.18C311.12 223.83 311.19 223.6 311.32 223.47C311.45 223.34 311.67 223.28 311.96 223.28H313.28C313.63 223.28 313.88 223.2 314.04 223.04C314.2 222.88 314.28 222.59 314.28 222.17V210.91C314.28 210.77 314.35 210.7 314.49 210.7H315.83C315.97 210.7 316.04 210.77 316.04 210.91V222.28C316.04 223.19 315.85 223.85 315.48 224.27C315.1 224.69 314.48 224.91 313.6 224.91H311.96V224.91Z" fill="#676767"/>
<path d="M320.71 224.71C320.71 224.85 320.64 224.92 320.5 224.92H319.17C319.03 224.92 318.96 224.85 318.96 224.71V210.92C318.96 210.78 319.03 210.71 319.17 210.71H320.5C320.64 210.71 320.71 210.78 320.71 210.92V224.71Z" fill="#676767"/>
<path d="M336.26 221.34C336.26 222.03 336.2 222.61 336.08 223.07C335.96 223.53 335.78 223.89 335.53 224.17C335.28 224.45 334.97 224.63 334.59 224.74C334.21 224.85 333.75 224.91 333.23 224.91H328.59C328.45 224.91 328.38 224.84 328.38 224.7V223.49C328.38 223.35 328.45 223.28 328.59 223.28H332.58C332.97 223.28 333.28 223.25 333.52 223.18C333.75 223.12 333.94 223.02 334.06 222.87C334.19 222.72 334.27 222.53 334.31 222.29C334.35 222.06 334.37 221.76 334.37 221.39V219.72C334.37 218.32 333.58 217.61 331.99 217.61H329.57C329.43 217.61 329.36 217.54 329.36 217.4V216.19C329.36 216.05 329.43 215.98 329.57 215.98H332.64C333.7 215.98 334.57 216.28 335.24 216.88C335.92 217.48 336.25 218.42 336.25 219.7V221.34H336.26Z" fill="#676767"/>
<path d="M337.59 229.07C337.45 229.07 337.38 229 337.38 228.86V227.65C337.38 227.51 337.45 227.44 337.59 227.44H338.07C339.2 227.44 339.76 226.85 339.76 225.67V216.58C339.76 216.44 339.83 216.37 339.97 216.37H341.3C341.44 216.37 341.51 216.44 341.51 216.58V225.63C341.51 226.76 341.22 227.61 340.65 228.2C340.08 228.79 339.24 229.08 338.14 229.08H337.59V229.07Z" fill="#676767"/>
<path d="M346.1 224.71C346.1 224.85 346.03 224.92 345.89 224.92H344.56C344.42 224.92 344.35 224.85 344.35 224.71V210.92C344.35 210.78 344.42 210.71 344.56 210.71H345.89C346.03 210.71 346.1 210.78 346.1 210.92V224.71Z" fill="#676767"/>
<path d="M350.48 229.07C350.34 229.07 350.27 229 350.27 228.86V227.65C350.27 227.51 350.34 227.44 350.48 227.44H352.98C353.26 227.44 353.52 227.41 353.76 227.35C353.99 227.29 354.2 227.18 354.38 227.03C354.55 226.89 354.69 226.68 354.79 226.43C354.89 226.17 354.94 225.85 354.94 225.46V224.92H352.7C352.08 224.92 351.53 224.85 351.04 224.7C350.55 224.56 350.12 224.32 349.77 223.99C349.42 223.67 349.16 223.23 348.98 222.69C348.8 222.15 348.71 221.48 348.71 220.68C348.71 219.89 348.82 219.19 349.03 218.6C349.25 218.01 349.54 217.52 349.91 217.14C350.28 216.76 350.71 216.47 351.2 216.29C351.69 216.1 352.2 216 352.75 216C353.99 216 354.96 216.36 355.65 217.08C356.34 217.79 356.69 218.96 356.69 220.56V223.3H358.13C358.41 223.3 358.62 223.36 358.76 223.48C358.9 223.6 358.97 223.8 358.97 224.07C358.97 224.43 358.9 224.67 358.77 224.77C358.64 224.87 358.43 224.93 358.13 224.93H356.69V225.43C356.69 226.08 356.6 226.64 356.43 227.1C356.25 227.56 356.01 227.94 355.7 228.23C355.38 228.52 355.01 228.74 354.56 228.88C354.11 229.02 353.62 229.09 353.08 229.09H350.48V229.07ZM352.74 217.62C352.04 217.62 351.49 217.9 351.08 218.46C350.67 219.02 350.46 219.76 350.46 220.67C350.46 221.66 350.66 222.34 351.06 222.72C351.45 223.1 352.04 223.28 352.82 223.28H354.93V220.54C354.93 219.62 354.76 218.91 354.42 218.39C354.08 217.88 353.52 217.62 352.74 217.62Z" fill="#676767"/>
<path d="M364.46 225.06C363.81 225.06 363.23 224.96 362.73 224.78C362.23 224.59 361.8 224.29 361.46 223.89C361.17 224.34 360.79 224.62 360.33 224.73C359.87 224.85 359.45 224.91 359.06 224.91H358.16C357.6 224.91 357.32 224.63 357.32 224.07C357.32 223.72 357.38 223.5 357.52 223.41C357.65 223.32 357.87 223.28 358.16 223.28H359.2C359.35 223.28 359.51 223.25 359.66 223.18C359.81 223.12 359.95 223.02 360.08 222.87C360.2 222.72 360.31 222.53 360.38 222.29C360.46 222.05 360.5 221.74 360.5 221.38C360.49 221.24 360.48 221.11 360.48 220.97C360.48 220.84 360.48 220.7 360.48 220.54C360.48 218.94 360.84 217.78 361.55 217.06C362.26 216.34 363.24 215.98 364.47 215.98C365.71 215.98 366.68 216.34 367.39 217.06C368.1 217.77 368.46 218.94 368.46 220.54C368.46 220.7 368.46 220.85 368.45 221C368.45 221.16 368.43 221.3 368.42 221.44C368.43 222.15 368.58 222.63 368.85 222.89C369.12 223.15 369.41 223.28 369.72 223.28H370.33C370.61 223.28 370.82 223.34 370.95 223.46C371.09 223.58 371.16 223.78 371.16 224.05C371.16 224.41 371.09 224.65 370.96 224.75C370.83 224.85 370.61 224.91 370.32 224.91H369.86C369.67 224.91 369.45 224.9 369.23 224.88C369.01 224.86 368.79 224.81 368.57 224.74C368.35 224.67 368.15 224.57 367.95 224.44C367.76 224.31 367.59 224.13 367.45 223.91C367.1 224.31 366.68 224.6 366.18 224.79C365.67 224.97 365.1 225.06 364.46 225.06ZM364.46 217.62C363.68 217.62 363.11 217.88 362.76 218.4C362.4 218.92 362.23 219.63 362.23 220.55C362.23 221.56 362.41 222.29 362.76 222.75C363.12 223.21 363.68 223.44 364.46 223.44C365.24 223.44 365.81 223.21 366.16 222.75C366.52 222.29 366.69 221.56 366.69 220.55C366.69 219.63 366.51 218.92 366.16 218.4C365.81 217.88 365.24 217.62 364.46 217.62Z" fill="#676767"/>
<path d="M370.29 224.91C370.01 224.91 369.8 224.86 369.66 224.76C369.52 224.66 369.45 224.47 369.45 224.18C369.45 223.83 369.52 223.6 369.65 223.47C369.78 223.34 370 223.28 370.29 223.28H371.61C371.96 223.28 372.21 223.2 372.37 223.04C372.53 222.88 372.61 222.59 372.61 222.17V210.91C372.61 210.77 372.68 210.7 372.82 210.7H374.16C374.3 210.7 374.37 210.77 374.37 210.91V222.28C374.37 223.19 374.18 223.85 373.81 224.27C373.43 224.69 372.81 224.91 371.93 224.91H370.29V224.91Z" fill="#676767"/>
<path d="M379.04 224.71C379.04 224.85 378.97 224.92 378.83 224.92H377.5C377.36 224.92 377.29 224.85 377.29 224.71V210.92C377.29 210.78 377.36 210.71 377.5 210.71H378.83C378.97 210.71 379.04 210.78 379.04 210.92V224.71Z" fill="#676767"/>
<path d="M390.44 225.06C389.2 225.06 388.23 224.7 387.52 223.99C386.81 223.28 386.45 222.13 386.45 220.54C386.45 218.94 386.81 217.78 387.52 217.06C388.23 216.34 389.21 215.98 390.44 215.98C391.67 215.98 392.65 216.34 393.36 217.06C394.07 217.77 394.43 218.94 394.43 220.54C394.43 221.34 394.33 222.02 394.14 222.59C393.95 223.16 393.69 223.63 393.35 223.99C393.01 224.35 392.59 224.62 392.1 224.79C391.61 224.97 391.06 225.06 390.44 225.06ZM390.44 217.62C389.66 217.62 389.09 217.88 388.74 218.4C388.39 218.92 388.21 219.63 388.21 220.55C388.21 221.56 388.39 222.29 388.74 222.75C389.1 223.21 389.66 223.44 390.44 223.44C391.22 223.44 391.79 223.21 392.14 222.75C392.5 222.29 392.67 221.56 392.67 220.55C392.67 219.63 392.49 218.92 392.14 218.4C391.79 217.88 391.22 217.62 390.44 217.62ZM388.46 214.3C388.32 214.3 388.25 214.23 388.25 214.09V212.56C388.25 212.42 388.32 212.35 388.46 212.35H389.88C390.02 212.35 390.09 212.42 390.09 212.56V214.09C390.09 214.23 390.02 214.3 389.88 214.3H388.46ZM391.01 214.3C390.87 214.3 390.8 214.23 390.8 214.09V212.56C390.8 212.42 390.87 212.35 391.01 212.35H392.43C392.57 212.35 392.64 212.42 392.64 212.56V214.09C392.64 214.23 392.57 214.3 392.43 214.3H391.01Z" fill="#676767"/>
<path d="M395.79 229.07C395.65 229.07 395.58 229 395.58 228.86V227.65C395.58 227.51 395.65 227.44 395.79 227.44H396.27C397.4 227.44 397.96 226.85 397.96 225.67V216.58C397.96 216.44 398.03 216.37 398.17 216.37H399.5C399.64 216.37 399.71 216.44 399.71 216.58V225.63C399.71 226.76 399.42 227.61 398.85 228.2C398.28 228.79 397.44 229.08 396.34 229.08H395.79V229.07Z" fill="#676767"/>
<path d="M404.29 224.71C404.29 224.85 404.22 224.92 404.08 224.92H402.75C402.61 224.92 402.54 224.85 402.54 224.71V210.92C402.54 210.78 402.61 210.71 402.75 210.71H404.08C404.22 210.71 404.29 210.78 404.29 210.92V224.71Z" fill="#676767"/>
<path d="M405.96 229.07C405.82 229.07 405.75 229 405.75 228.86V227.65C405.75 227.51 405.82 227.44 405.96 227.44H406.44C407.57 227.44 408.13 226.85 408.13 225.67V216.58C408.13 216.44 408.2 216.37 408.34 216.37H409.67C409.81 216.37 409.88 216.44 409.88 216.58V225.63C409.88 226.76 409.59 227.61 409.02 228.2C408.45 228.79 407.61 229.08 406.51 229.08H405.96V229.07ZM408.32 214.3C408.18 214.3 408.11 214.23 408.11 214.09V212.56C408.11 212.42 408.18 212.35 408.32 212.35H409.74C409.88 212.35 409.95 212.42 409.95 212.56V214.09C409.95 214.23 409.88 214.3 409.74 214.3H408.32Z" fill="#676767"/>
<path d="M414.17 229.07C414.03 229.07 413.96 229 413.96 228.86V227.65C413.96 227.51 414.03 227.44 414.17 227.44H416.67C416.95 227.44 417.21 227.41 417.45 227.35C417.68 227.29 417.89 227.18 418.07 227.03C418.24 226.89 418.38 226.68 418.48 226.43C418.58 226.17 418.63 225.85 418.63 225.46V224.92H416.39C415.77 224.92 415.22 224.85 414.73 224.7C414.24 224.56 413.81 224.32 413.46 223.99C413.11 223.67 412.85 223.23 412.67 222.69C412.49 222.15 412.4 221.48 412.4 220.68C412.4 219.89 412.5 219.19 412.71 218.6C412.92 218.01 413.21 217.52 413.58 217.14C413.95 216.76 414.37 216.47 414.86 216.29C415.35 216.1 415.87 216 416.43 216C417.67 216 418.64 216.36 419.33 217.08C420.02 217.79 420.37 218.96 420.37 220.56V225.43C420.37 226.08 420.28 226.64 420.11 227.1C419.93 227.56 419.69 227.94 419.38 228.23C419.06 228.52 418.69 228.74 418.24 228.88C417.79 229.02 417.3 229.09 416.76 229.09H414.17V229.07ZM416.43 217.62C415.72 217.62 415.16 217.9 414.76 218.46C414.36 219.02 414.15 219.76 414.15 220.67C414.15 221.66 414.35 222.34 414.75 222.72C415.14 223.1 415.73 223.28 416.51 223.28H418.62V220.54C418.62 219.62 418.45 218.91 418.11 218.39C417.77 217.88 417.21 217.62 416.43 217.62Z" fill="#676767"/>
</svg>
